<svg width="472" height="560" viewBox="0 0 472 560" fill="none" xmlns="http://www.w3.org/2000/svg">
<path d="M180 369H412C418.351 369 423.5 374.149 423.5 380.5V388.5C423.5 394.851 418.351 400 412 400H180C173.649 400 168.5 394.851 168.5 388.5V380.5C168.5 374.149 173.649 369 180 369Z" fill="url(#paint0_linear_2025_3916)"/>
<path d="M180 369H412C418.351 369 423.5 374.149 423.5 380.5V388.5C423.5 394.851 418.351 400 412 400H180C173.649 400 168.5 394.851 168.5 388.5V380.5C168.5 374.149 173.649 369 180 369Z" stroke="url(#paint1_linear_2025_3916)"/>
<path d="M180.959 388.5V379.773H182.276V387.366H186.23V388.5H180.959ZM190.451 388.632C189.806 388.632 189.251 388.494 188.785 388.219C188.322 387.94 187.964 387.55 187.711 387.047C187.461 386.541 187.336 385.949 187.336 385.27C187.336 384.599 187.461 384.009 187.711 383.497C187.964 382.986 188.316 382.587 188.768 382.3C189.222 382.013 189.754 381.869 190.362 381.869C190.731 381.869 191.089 381.93 191.435 382.053C191.782 382.175 192.093 382.366 192.369 382.628C192.644 382.889 192.862 383.229 193.021 383.646C193.18 384.061 193.259 384.565 193.259 385.159V385.611H188.056V384.656H192.011C192.011 384.321 191.942 384.024 191.806 383.766C191.67 383.504 191.478 383.298 191.231 383.148C190.987 382.997 190.7 382.922 190.37 382.922C190.012 382.922 189.7 383.01 189.433 383.186C189.168 383.359 188.964 383.587 188.819 383.868C188.677 384.146 188.606 384.449 188.606 384.776V385.521C188.606 385.959 188.683 386.331 188.836 386.638C188.992 386.945 189.21 387.179 189.488 387.341C189.766 387.5 190.092 387.58 190.464 387.58C190.705 387.58 190.925 387.545 191.124 387.477C191.323 387.406 191.495 387.301 191.64 387.162C191.785 387.023 191.896 386.851 191.972 386.646L193.178 386.864C193.082 387.219 192.908 387.53 192.658 387.797C192.411 388.061 192.1 388.267 191.725 388.415C191.353 388.56 190.928 388.632 190.451 388.632ZM197.728 381.955V382.977H194.153V381.955H197.728ZM195.112 380.386H196.386V386.578C196.386 386.825 196.423 387.011 196.497 387.136C196.571 387.259 196.666 387.342 196.782 387.388C196.902 387.43 197.031 387.452 197.17 387.452C197.272 387.452 197.362 387.445 197.439 387.43C197.515 387.416 197.575 387.405 197.618 387.396L197.848 388.449C197.774 388.477 197.669 388.506 197.532 388.534C197.396 388.565 197.225 388.582 197.021 388.585C196.686 388.591 196.373 388.531 196.083 388.406C195.794 388.281 195.559 388.088 195.38 387.827C195.201 387.565 195.112 387.237 195.112 386.842V380.386ZM202.314 388.5V381.955H203.537V383.02H203.618C203.754 382.659 203.977 382.378 204.287 382.176C204.596 381.972 204.967 381.869 205.399 381.869C205.836 381.869 206.203 381.972 206.498 382.176C206.797 382.381 207.017 382.662 207.159 383.02H207.227C207.383 382.67 207.632 382.392 207.973 382.185C208.314 381.974 208.72 381.869 209.191 381.869C209.785 381.869 210.27 382.055 210.645 382.428C211.022 382.8 211.211 383.361 211.211 384.111V388.5H209.937V384.23C209.937 383.787 209.816 383.466 209.575 383.267C209.333 383.068 209.045 382.969 208.71 382.969C208.295 382.969 207.973 383.097 207.743 383.352C207.512 383.605 207.397 383.93 207.397 384.328V388.5H206.127V384.149C206.127 383.794 206.017 383.509 205.795 383.293C205.574 383.077 205.285 382.969 204.93 382.969C204.689 382.969 204.466 383.033 204.261 383.161C204.059 383.286 203.896 383.46 203.771 383.685C203.649 383.909 203.588 384.169 203.588 384.464V388.5H202.314ZM215.74 388.632C215.095 388.632 214.54 388.494 214.074 388.219C213.611 387.94 213.253 387.55 213 387.047C212.75 386.541 212.625 385.949 212.625 385.27C212.625 384.599 212.75 384.009 213 383.497C213.253 382.986 213.605 382.587 214.057 382.3C214.511 382.013 215.043 381.869 215.651 381.869C216.02 381.869 216.378 381.93 216.724 382.053C217.071 382.175 217.382 382.366 217.658 382.628C217.933 382.889 218.151 383.229 218.31 383.646C218.469 384.061 218.548 384.565 218.548 385.159V385.611H213.345V384.656H217.3C217.3 384.321 217.232 384.024 217.095 383.766C216.959 383.504 216.767 383.298 216.52 383.148C216.276 382.997 215.989 382.922 215.659 382.922C215.301 382.922 214.989 383.01 214.722 383.186C214.457 383.359 214.253 383.587 214.108 383.868C213.966 384.146 213.895 384.449 213.895 384.776V385.521C213.895 385.959 213.972 386.331 214.125 386.638C214.281 386.945 214.499 387.179 214.777 387.341C215.055 387.5 215.381 387.58 215.753 387.58C215.994 387.58 216.214 387.545 216.413 387.477C216.612 387.406 216.784 387.301 216.929 387.162C217.074 387.023 217.185 386.851 217.261 386.646L218.467 386.864C218.371 387.219 218.197 387.53 217.947 387.797C217.7 388.061 217.389 388.267 217.014 388.415C216.642 388.56 216.217 388.632 215.74 388.632ZM227.557 390.955V387.482H227.48C227.403 387.621 227.293 387.78 227.148 387.959C227.006 388.138 226.81 388.294 226.56 388.428C226.31 388.561 225.986 388.628 225.588 388.628C225.06 388.628 224.588 388.493 224.173 388.223C223.761 387.95 223.438 387.562 223.202 387.06C222.969 386.554 222.852 385.947 222.852 385.24C222.852 384.533 222.97 383.928 223.206 383.425C223.445 382.922 223.771 382.537 224.186 382.27C224.601 382.003 225.071 381.869 225.597 381.869C226.003 381.869 226.33 381.938 226.577 382.074C226.827 382.207 227.02 382.364 227.156 382.543C227.295 382.722 227.403 382.879 227.48 383.016H227.587V381.955H228.831V390.955H227.557ZM225.869 387.541C226.236 387.541 226.545 387.445 226.798 387.251C227.054 387.055 227.247 386.784 227.378 386.438C227.511 386.091 227.578 385.687 227.578 385.227C227.578 384.773 227.513 384.375 227.382 384.034C227.251 383.693 227.06 383.428 226.807 383.237C226.554 383.047 226.241 382.952 225.869 382.952C225.486 382.952 225.166 383.051 224.911 383.25C224.655 383.449 224.462 383.72 224.331 384.064C224.203 384.408 224.139 384.795 224.139 385.227C224.139 385.665 224.205 386.058 224.335 386.408C224.466 386.757 224.659 387.034 224.915 387.239C225.173 387.44 225.491 387.541 225.869 387.541ZM234.69 385.786V381.955H235.969V388.5H234.716V387.366H234.648C234.497 387.716 234.256 388.007 233.923 388.24C233.594 388.47 233.183 388.585 232.692 388.585C232.271 388.585 231.899 388.493 231.575 388.308C231.254 388.121 231.001 387.844 230.817 387.477C230.635 387.111 230.544 386.658 230.544 386.118V381.955H231.818V385.964C231.818 386.411 231.942 386.766 232.189 387.03C232.436 387.294 232.757 387.426 233.152 387.426C233.391 387.426 233.628 387.366 233.864 387.247C234.102 387.128 234.3 386.947 234.456 386.706C234.615 386.464 234.693 386.158 234.69 385.786ZM237.681 388.5V381.955H238.955V388.5H237.681ZM238.324 380.945C238.103 380.945 237.912 380.871 237.753 380.723C237.597 380.572 237.519 380.393 237.519 380.186C237.519 379.976 237.597 379.797 237.753 379.649C237.912 379.499 238.103 379.423 238.324 379.423C238.546 379.423 238.735 379.499 238.891 379.649C239.05 379.797 239.13 379.976 239.13 380.186C239.13 380.393 239.05 380.572 238.891 380.723C238.735 380.871 238.546 380.945 238.324 380.945ZM243.426 388.632C242.793 388.632 242.247 388.489 241.79 388.202C241.335 387.912 240.986 387.513 240.741 387.004C240.497 386.496 240.375 385.913 240.375 385.257C240.375 384.592 240.5 384.006 240.75 383.497C241 382.986 241.352 382.587 241.807 382.3C242.261 382.013 242.797 381.869 243.413 381.869C243.911 381.869 244.354 381.962 244.743 382.146C245.132 382.328 245.446 382.584 245.685 382.913C245.926 383.243 246.07 383.628 246.115 384.068H244.875C244.807 383.761 244.651 383.497 244.406 383.276C244.165 383.054 243.841 382.943 243.435 382.943C243.08 382.943 242.768 383.037 242.501 383.224C242.237 383.409 242.031 383.673 241.884 384.017C241.736 384.358 241.662 384.761 241.662 385.227C241.662 385.705 241.734 386.116 241.879 386.463C242.024 386.81 242.229 387.078 242.493 387.268C242.76 387.459 243.074 387.554 243.435 387.554C243.676 387.554 243.895 387.51 244.091 387.422C244.29 387.331 244.456 387.202 244.589 387.034C244.726 386.866 244.821 386.665 244.875 386.429H246.115C246.07 386.852 245.932 387.23 245.702 387.562C245.472 387.895 245.163 388.156 244.777 388.347C244.393 388.537 243.943 388.632 243.426 388.632ZM248.65 386.28L248.641 384.724H248.863L251.471 381.955H252.996L250.022 385.108H249.821L248.65 386.28ZM247.478 388.5V379.773H248.752V388.5H247.478ZM251.611 388.5L249.267 385.389L250.145 384.499L253.175 388.5H251.611ZM255.431 379.773V388.5H254.157V379.773H255.431ZM257.951 390.955C257.761 390.955 257.587 390.939 257.431 390.908C257.275 390.879 257.158 390.848 257.082 390.814L257.388 389.77C257.621 389.832 257.829 389.859 258.011 389.851C258.192 389.842 258.353 389.774 258.492 389.646C258.634 389.518 258.759 389.31 258.867 389.02L259.025 388.585L256.63 381.955H257.994L259.651 387.034H259.719L261.377 381.955H262.745L260.048 389.374C259.923 389.714 259.763 390.003 259.57 390.239C259.377 390.477 259.147 390.656 258.88 390.776C258.613 390.895 258.303 390.955 257.951 390.955ZM267.118 381.955H268.392V388.926C268.392 389.364 268.313 389.733 268.154 390.034C267.998 390.335 267.765 390.564 267.455 390.72C267.148 390.876 266.769 390.955 266.317 390.955C266.272 390.955 266.229 390.955 266.189 390.955C266.147 390.955 266.103 390.953 266.057 390.95V389.855C266.097 389.855 266.132 389.855 266.164 389.855C266.192 389.855 266.225 389.855 266.262 389.855C266.563 389.855 266.78 389.774 266.914 389.612C267.05 389.453 267.118 389.222 267.118 388.918V381.955ZM267.749 380.945C267.527 380.945 267.337 380.871 267.178 380.723C267.022 380.572 266.944 380.393 266.944 380.186C266.944 379.976 267.022 379.797 267.178 379.649C267.337 379.499 267.527 379.423 267.749 379.423C267.971 379.423 268.159 379.499 268.316 379.649C268.475 379.797 268.554 379.976 268.554 380.186C268.554 380.393 268.475 380.572 268.316 380.723C268.159 380.871 267.971 380.945 267.749 380.945ZM274.253 385.786V381.955H275.531V388.5H274.278V387.366H274.21C274.06 387.716 273.818 388.007 273.486 388.24C273.156 388.47 272.746 388.585 272.254 388.585C271.834 388.585 271.462 388.493 271.138 388.308C270.817 388.121 270.564 387.844 270.379 387.477C270.197 387.111 270.107 386.658 270.107 386.118V381.955H271.381V385.964C271.381 386.411 271.504 386.766 271.751 387.03C271.999 387.294 272.32 387.426 272.714 387.426C272.953 387.426 273.19 387.366 273.426 387.247C273.665 387.128 273.862 386.947 274.018 386.706C274.178 386.464 274.256 386.158 274.253 385.786ZM277.243 388.5V381.955H278.466V383.02H278.547C278.684 382.659 278.907 382.378 279.216 382.176C279.526 381.972 279.897 381.869 280.328 381.869C280.766 381.869 281.132 381.972 281.428 382.176C281.726 382.381 281.946 382.662 282.088 383.02H282.157C282.313 382.67 282.561 382.392 282.902 382.185C283.243 381.974 283.65 381.869 284.121 381.869C284.715 381.869 285.199 382.055 285.574 382.428C285.952 382.8 286.141 383.361 286.141 384.111V388.5H284.867V384.23C284.867 383.787 284.746 383.466 284.505 383.267C284.263 383.068 283.975 382.969 283.64 382.969C283.225 382.969 282.902 383.097 282.672 383.352C282.442 383.605 282.327 383.93 282.327 384.328V388.5H281.057V384.149C281.057 383.794 280.946 383.509 280.725 383.293C280.503 383.077 280.215 382.969 279.86 382.969C279.618 382.969 279.395 383.033 279.191 383.161C278.989 383.286 278.826 383.46 278.701 383.685C278.578 383.909 278.517 384.169 278.517 384.464V388.5H277.243ZM287.849 390.955V381.955H289.093V383.016H289.2C289.273 382.879 289.38 382.722 289.519 382.543C289.658 382.364 289.852 382.207 290.099 382.074C290.346 381.938 290.673 381.869 291.079 381.869C291.607 381.869 292.079 382.003 292.494 382.27C292.908 382.537 293.234 382.922 293.469 383.425C293.708 383.928 293.827 384.533 293.827 385.24C293.827 385.947 293.71 386.554 293.474 387.06C293.238 387.562 292.914 387.95 292.502 388.223C292.09 388.493 291.62 388.628 291.092 388.628C290.694 388.628 290.369 388.561 290.116 388.428C289.866 388.294 289.67 388.138 289.528 387.959C289.386 387.78 289.276 387.621 289.2 387.482H289.123V390.955H287.849ZM289.097 385.227C289.097 385.687 289.164 386.091 289.298 386.438C289.431 386.784 289.624 387.055 289.877 387.251C290.13 387.445 290.44 387.541 290.806 387.541C291.187 387.541 291.505 387.44 291.761 387.239C292.016 387.034 292.21 386.757 292.34 386.408C292.474 386.058 292.54 385.665 292.54 385.227C292.54 384.795 292.475 384.408 292.344 384.064C292.217 383.72 292.023 383.449 291.765 383.25C291.509 383.051 291.19 382.952 290.806 382.952C290.437 382.952 290.124 383.047 289.869 383.237C289.616 383.428 289.424 383.693 289.293 384.034C289.163 384.375 289.097 384.773 289.097 385.227ZM298.431 388.5V381.955H299.705V388.5H298.431ZM299.074 380.945C298.853 380.945 298.662 380.871 298.503 380.723C298.347 380.572 298.269 380.393 298.269 380.186C298.269 379.976 298.347 379.797 298.503 379.649C298.662 379.499 298.853 379.423 299.074 379.423C299.296 379.423 299.485 379.499 299.641 379.649C299.8 379.797 299.88 379.976 299.88 380.186C299.88 380.393 299.8 380.572 299.641 380.723C299.485 380.871 299.296 380.945 299.074 380.945ZM302.693 384.614V388.5H301.419V381.955H302.642V383.02H302.723C302.874 382.673 303.109 382.395 303.43 382.185C303.754 381.974 304.162 381.869 304.653 381.869C305.099 381.869 305.49 381.963 305.825 382.151C306.161 382.335 306.42 382.611 306.605 382.977C306.79 383.344 306.882 383.797 306.882 384.337V388.5H305.608V384.49C305.608 384.016 305.484 383.645 305.237 383.378C304.99 383.108 304.651 382.973 304.219 382.973C303.923 382.973 303.661 383.037 303.43 383.165C303.203 383.293 303.023 383.48 302.889 383.727C302.759 383.972 302.693 384.267 302.693 384.614ZM311.646 381.955V382.977H308.071V381.955H311.646ZM309.03 380.386H310.304V386.578C310.304 386.825 310.341 387.011 310.415 387.136C310.489 387.259 310.584 387.342 310.7 387.388C310.82 387.43 310.949 387.452 311.088 387.452C311.19 387.452 311.28 387.445 311.357 387.43C311.433 387.416 311.493 387.405 311.536 387.396L311.766 388.449C311.692 388.477 311.587 388.506 311.45 388.534C311.314 388.565 311.143 388.582 310.939 388.585C310.604 388.591 310.291 388.531 310.001 388.406C309.712 388.281 309.477 388.088 309.298 387.827C309.119 387.565 309.03 387.237 309.03 386.842V380.386ZM315.743 388.632C315.129 388.632 314.593 388.491 314.136 388.21C313.679 387.929 313.324 387.536 313.071 387.03C312.818 386.524 312.691 385.933 312.691 385.257C312.691 384.578 312.818 383.984 313.071 383.476C313.324 382.967 313.679 382.572 314.136 382.291C314.593 382.01 315.129 381.869 315.743 381.869C316.356 381.869 316.892 382.01 317.349 382.291C317.806 382.572 318.162 382.967 318.414 383.476C318.667 383.984 318.794 384.578 318.794 385.257C318.794 385.933 318.667 386.524 318.414 387.03C318.162 387.536 317.806 387.929 317.349 388.21C316.892 388.491 316.356 388.632 315.743 388.632ZM315.747 387.562C316.145 387.562 316.474 387.457 316.735 387.247C316.997 387.037 317.19 386.757 317.315 386.408C317.443 386.058 317.507 385.673 317.507 385.253C317.507 384.835 317.443 384.452 317.315 384.102C317.19 383.75 316.997 383.467 316.735 383.254C316.474 383.041 316.145 382.935 315.747 382.935C315.346 382.935 315.014 383.041 314.75 383.254C314.488 383.467 314.294 383.75 314.166 384.102C314.041 384.452 313.978 384.835 313.978 385.253C313.978 385.673 314.041 386.058 314.166 386.408C314.294 386.757 314.488 387.037 314.75 387.247C315.014 387.457 315.346 387.562 315.747 387.562ZM328.254 382.065C328.208 381.662 328.021 381.349 327.691 381.128C327.362 380.903 326.947 380.791 326.447 380.791C326.089 380.791 325.779 380.848 325.518 380.962C325.257 381.072 325.054 381.226 324.909 381.422C324.767 381.615 324.696 381.835 324.696 382.082C324.696 382.29 324.744 382.469 324.841 382.619C324.94 382.77 325.069 382.896 325.228 382.999C325.39 383.098 325.564 383.182 325.748 383.25C325.933 383.315 326.11 383.369 326.281 383.412L327.133 383.634C327.412 383.702 327.697 383.794 327.99 383.911C328.282 384.027 328.554 384.18 328.804 384.371C329.054 384.561 329.255 384.797 329.409 385.078C329.565 385.359 329.643 385.696 329.643 386.088C329.643 386.582 329.515 387.021 329.26 387.405C329.007 387.788 328.639 388.091 328.156 388.312C327.676 388.534 327.095 388.645 326.413 388.645C325.76 388.645 325.194 388.541 324.717 388.334C324.24 388.126 323.866 387.832 323.596 387.452C323.326 387.068 323.177 386.614 323.149 386.088H324.47C324.495 386.403 324.598 386.666 324.777 386.876C324.958 387.084 325.19 387.239 325.471 387.341C325.755 387.44 326.066 387.49 326.404 387.49C326.777 387.49 327.108 387.432 327.397 387.315C327.69 387.196 327.92 387.031 328.088 386.821C328.255 386.608 328.339 386.359 328.339 386.075C328.339 385.817 328.265 385.605 328.118 385.44C327.973 385.276 327.775 385.139 327.525 385.031C327.278 384.923 326.998 384.828 326.686 384.746L325.654 384.464C324.956 384.274 324.402 383.994 323.993 383.625C323.586 383.256 323.383 382.767 323.383 382.159C323.383 381.656 323.52 381.217 323.792 380.842C324.065 380.467 324.434 380.176 324.9 379.969C325.366 379.759 325.892 379.653 326.477 379.653C327.068 379.653 327.589 379.757 328.041 379.964C328.495 380.172 328.853 380.457 329.115 380.821C329.376 381.182 329.512 381.597 329.524 382.065H328.254ZM333.019 388.645C332.604 388.645 332.229 388.568 331.894 388.415C331.559 388.259 331.293 388.033 331.097 387.737C330.904 387.442 330.808 387.08 330.808 386.651C330.808 386.281 330.879 385.977 331.021 385.739C331.163 385.5 331.354 385.311 331.596 385.172C331.837 385.033 332.107 384.928 332.406 384.857C332.704 384.786 333.008 384.732 333.317 384.695C333.71 384.649 334.028 384.612 334.272 384.584C334.516 384.553 334.694 384.503 334.805 384.435C334.915 384.366 334.971 384.256 334.971 384.102V384.072C334.971 383.7 334.866 383.412 334.656 383.207C334.448 383.003 334.138 382.901 333.727 382.901C333.298 382.901 332.96 382.996 332.712 383.186C332.468 383.374 332.299 383.582 332.205 383.812L331.008 383.54C331.15 383.142 331.357 382.821 331.63 382.577C331.906 382.33 332.222 382.151 332.58 382.04C332.938 381.926 333.315 381.869 333.71 381.869C333.971 381.869 334.248 381.901 334.54 381.963C334.836 382.023 335.112 382.134 335.367 382.295C335.626 382.457 335.837 382.689 336.002 382.99C336.167 383.288 336.249 383.676 336.249 384.153V388.5H335.005V387.605H334.954C334.871 387.77 334.748 387.932 334.583 388.091C334.418 388.25 334.207 388.382 333.948 388.487C333.69 388.592 333.38 388.645 333.019 388.645ZM333.296 387.622C333.648 387.622 333.95 387.553 334.2 387.413C334.452 387.274 334.644 387.092 334.775 386.868C334.908 386.641 334.975 386.398 334.975 386.139V385.295C334.93 385.341 334.842 385.384 334.711 385.423C334.583 385.46 334.437 385.493 334.272 385.521C334.107 385.547 333.947 385.571 333.79 385.594C333.634 385.614 333.504 385.631 333.398 385.645C333.151 385.676 332.925 385.729 332.721 385.803C332.519 385.876 332.357 385.983 332.235 386.122C332.116 386.259 332.056 386.44 332.056 386.668C332.056 386.983 332.173 387.222 332.406 387.384C332.638 387.543 332.935 387.622 333.296 387.622ZM339.221 384.614V388.5H337.946V381.955H339.169V383.02H339.25C339.401 382.673 339.637 382.395 339.958 382.185C340.282 381.974 340.689 381.869 341.181 381.869C341.627 381.869 342.017 381.963 342.353 382.151C342.688 382.335 342.948 382.611 343.132 382.977C343.317 383.344 343.409 383.797 343.409 384.337V388.5H342.135V384.49C342.135 384.016 342.012 383.645 341.765 383.378C341.517 383.108 341.178 382.973 340.746 382.973C340.451 382.973 340.188 383.037 339.958 383.165C339.73 383.293 339.55 383.48 339.417 383.727C339.286 383.972 339.221 384.267 339.221 384.614ZM345.118 388.5V381.955H346.392V388.5H345.118ZM345.762 380.945C345.54 380.945 345.35 380.871 345.191 380.723C345.034 380.572 344.956 380.393 344.956 380.186C344.956 379.976 345.034 379.797 345.191 379.649C345.35 379.499 345.54 379.423 345.762 379.423C345.983 379.423 346.172 379.499 346.328 379.649C346.488 379.797 346.567 379.976 346.567 380.186C346.567 380.393 346.488 380.572 346.328 380.723C346.172 380.871 345.983 380.945 345.762 380.945ZM351.162 381.955V382.977H347.587V381.955H351.162ZM348.545 380.386H349.82V386.578C349.82 386.825 349.857 387.011 349.93 387.136C350.004 387.259 350.099 387.342 350.216 387.388C350.335 387.43 350.464 387.452 350.604 387.452C350.706 387.452 350.795 387.445 350.872 387.43C350.949 387.416 351.009 387.405 351.051 387.396L351.281 388.449C351.207 388.477 351.102 388.506 350.966 388.534C350.83 388.565 350.659 388.582 350.455 388.585C350.119 388.591 349.807 388.531 349.517 388.406C349.227 388.281 348.993 388.088 348.814 387.827C348.635 387.565 348.545 387.237 348.545 386.842V380.386ZM353.377 390.955C353.186 390.955 353.013 390.939 352.857 390.908C352.701 390.879 352.584 390.848 352.507 390.814L352.814 389.77C353.047 389.832 353.255 389.859 353.436 389.851C353.618 389.842 353.779 389.774 353.918 389.646C354.06 389.518 354.185 389.31 354.293 389.02L354.451 388.585L352.056 381.955H353.419L355.077 387.034H355.145L356.803 381.955H358.171L355.473 389.374C355.348 389.714 355.189 390.003 354.996 390.239C354.803 390.477 354.573 390.656 354.306 390.776C354.039 390.895 353.729 390.955 353.377 390.955ZM364.449 388.645C364.034 388.645 363.659 388.568 363.324 388.415C362.989 388.259 362.723 388.033 362.527 387.737C362.334 387.442 362.237 387.08 362.237 386.651C362.237 386.281 362.308 385.977 362.45 385.739C362.592 385.5 362.784 385.311 363.026 385.172C363.267 385.033 363.537 384.928 363.835 384.857C364.134 384.786 364.438 384.732 364.747 384.695C365.139 384.649 365.457 384.612 365.702 384.584C365.946 384.553 366.124 384.503 366.234 384.435C366.345 384.366 366.401 384.256 366.401 384.102V384.072C366.401 383.7 366.295 383.412 366.085 383.207C365.878 383.003 365.568 382.901 365.156 382.901C364.727 382.901 364.389 382.996 364.142 383.186C363.898 383.374 363.729 383.582 363.635 383.812L362.438 383.54C362.58 383.142 362.787 382.821 363.06 382.577C363.335 382.33 363.652 382.151 364.01 382.04C364.368 381.926 364.744 381.869 365.139 381.869C365.401 381.869 365.678 381.901 365.97 381.963C366.266 382.023 366.541 382.134 366.797 382.295C367.055 382.457 367.267 382.689 367.432 382.99C367.597 383.288 367.679 383.676 367.679 384.153V388.5H366.435V387.605H366.384C366.301 387.77 366.178 387.932 366.013 388.091C365.848 388.25 365.636 388.382 365.378 388.487C365.119 388.592 364.81 388.645 364.449 388.645ZM364.726 387.622C365.078 387.622 365.379 387.553 365.629 387.413C365.882 387.274 366.074 387.092 366.205 386.868C366.338 386.641 366.405 386.398 366.405 386.139V385.295C366.359 385.341 366.271 385.384 366.141 385.423C366.013 385.46 365.866 385.493 365.702 385.521C365.537 385.547 365.376 385.571 365.22 385.594C365.064 385.614 364.933 385.631 364.828 385.645C364.581 385.676 364.355 385.729 364.151 385.803C363.949 385.876 363.787 385.983 363.665 386.122C363.545 386.259 363.486 386.44 363.486 386.668C363.486 386.983 363.602 387.222 363.835 387.384C364.068 387.543 364.365 387.622 364.726 387.622ZM370.65 384.614V388.5H369.376V381.955H370.599V383.02H370.68C370.831 382.673 371.066 382.395 371.387 382.185C371.711 381.974 372.119 381.869 372.61 381.869C373.056 381.869 373.447 381.963 373.782 382.151C374.118 382.335 374.377 382.611 374.562 382.977C374.747 383.344 374.839 383.797 374.839 384.337V388.5H373.565V384.49C373.565 384.016 373.441 383.645 373.194 383.378C372.947 383.108 372.608 382.973 372.176 382.973C371.88 382.973 371.618 383.037 371.387 383.165C371.16 383.293 370.98 383.48 370.846 383.727C370.716 383.972 370.65 384.267 370.65 384.614ZM378.998 388.628C378.47 388.628 377.998 388.493 377.583 388.223C377.172 387.95 376.848 387.562 376.612 387.06C376.379 386.554 376.262 385.947 376.262 385.24C376.262 384.533 376.38 383.928 376.616 383.425C376.855 382.922 377.181 382.537 377.596 382.27C378.011 382.003 378.481 381.869 379.007 381.869C379.413 381.869 379.74 381.938 379.987 382.074C380.237 382.207 380.43 382.364 380.566 382.543C380.706 382.722 380.814 382.879 380.89 383.016H380.967V379.773H382.241V388.5H380.997V387.482H380.89C380.814 387.621 380.703 387.78 380.558 387.959C380.416 388.138 380.22 388.294 379.97 388.428C379.72 388.561 379.396 388.628 378.998 388.628ZM379.279 387.541C379.646 387.541 379.956 387.445 380.208 387.251C380.464 387.055 380.657 386.784 380.788 386.438C380.922 386.091 380.988 385.687 380.988 385.227C380.988 384.773 380.923 384.375 380.792 384.034C380.662 383.693 380.47 383.428 380.217 383.237C379.964 383.047 379.652 382.952 379.279 382.952C378.896 382.952 378.576 383.051 378.321 383.25C378.065 383.449 377.872 383.72 377.741 384.064C377.613 384.408 377.549 384.795 377.549 385.227C377.549 385.665 377.615 386.058 377.745 386.408C377.876 386.757 378.069 387.034 378.325 387.239C378.583 387.44 378.902 387.541 379.279 387.541ZM390.35 381.955V382.977H386.652V381.955H390.35ZM387.666 388.5V381.196C387.666 380.787 387.755 380.447 387.934 380.178C388.113 379.905 388.35 379.702 388.646 379.568C388.941 379.432 389.262 379.364 389.609 379.364C389.865 379.364 390.083 379.385 390.265 379.428C390.447 379.467 390.582 379.504 390.67 379.538L390.372 380.57C390.312 380.553 390.235 380.533 390.142 380.51C390.048 380.484 389.934 380.472 389.801 380.472C389.491 380.472 389.27 380.548 389.136 380.702C389.005 380.855 388.94 381.077 388.94 381.366V388.5H387.666ZM391.665 388.5V381.955H392.939V388.5H391.665ZM392.309 380.945C392.087 380.945 391.897 380.871 391.738 380.723C391.581 380.572 391.503 380.393 391.503 380.186C391.503 379.976 391.581 379.797 391.738 379.649C391.897 379.499 392.087 379.423 392.309 379.423C392.53 379.423 392.719 379.499 392.875 379.649C393.034 379.797 393.114 379.976 393.114 380.186C393.114 380.393 393.034 380.572 392.875 380.723C392.719 380.871 392.53 380.945 392.309 380.945ZM395.659 381.955L397.104 384.503L398.561 381.955H399.955L397.913 385.227L399.972 388.5H398.578L397.104 386.054L395.634 388.5H394.236L396.273 385.227L394.261 381.955H395.659ZM404.439 388.5V381.955H405.713V388.5H404.439ZM405.082 380.945C404.86 380.945 404.67 380.871 404.511 380.723C404.355 380.572 404.277 380.393 404.277 380.186C404.277 379.976 404.355 379.797 404.511 379.649C404.67 379.499 404.86 379.423 405.082 379.423C405.304 379.423 405.493 379.499 405.649 379.649C405.808 379.797 405.887 379.976 405.887 380.186C405.887 380.393 405.808 380.572 405.649 380.723C405.493 380.871 405.304 380.945 405.082 380.945ZM410.482 381.955V382.977H406.907V381.955H410.482ZM407.866 380.386H409.14V386.578C409.14 386.825 409.177 387.011 409.251 387.136C409.325 387.259 409.42 387.342 409.536 387.388C409.656 387.43 409.785 387.452 409.924 387.452C410.026 387.452 410.116 387.445 410.192 387.43C410.269 387.416 410.329 387.405 410.371 387.396L410.602 388.449C410.528 388.477 410.423 388.506 410.286 388.534C410.15 388.565 409.979 388.582 409.775 388.585C409.44 388.591 409.127 388.531 408.837 388.406C408.548 388.281 408.313 388.088 408.134 387.827C407.955 387.565 407.866 387.237 407.866 386.842V380.386Z" fill="#A1A1AA"/>
<path d="M378 409H412C418.351 409 423.5 414.149 423.5 420.5V428.5C423.5 434.851 418.351 440 412 440H378C371.649 440 366.5 434.851 366.5 428.5V420.5C366.5 414.149 371.649 409 378 409Z" fill="url(#paint2_linear_2025_3916)"/>
<path d="M378 409H412C418.351 409 423.5 414.149 423.5 420.5V428.5C423.5 434.851 418.351 440 412 440H378C371.649 440 366.5 434.851 366.5 428.5V420.5C366.5 414.149 371.649 409 378 409Z" stroke="url(#paint3_linear_2025_3916)"/>
<path d="M381.784 428.5H378.959V419.773H381.874C382.729 419.773 383.463 419.947 384.077 420.297C384.69 420.643 385.161 421.142 385.487 421.793C385.817 422.44 385.982 423.217 385.982 424.124C385.982 425.033 385.815 425.814 385.483 426.467C385.153 427.121 384.676 427.624 384.051 427.976C383.426 428.325 382.67 428.5 381.784 428.5ZM380.276 427.349H381.712C382.376 427.349 382.929 427.224 383.369 426.974C383.81 426.722 384.139 426.357 384.358 425.879C384.577 425.399 384.686 424.814 384.686 424.124C384.686 423.439 384.577 422.858 384.358 422.381C384.142 421.903 383.82 421.541 383.391 421.294C382.962 421.047 382.429 420.923 381.793 420.923H380.276V427.349ZM390.274 428.632C389.66 428.632 389.125 428.491 388.667 428.21C388.21 427.929 387.855 427.536 387.602 427.03C387.349 426.524 387.223 425.933 387.223 425.257C387.223 424.578 387.349 423.984 387.602 423.476C387.855 422.967 388.21 422.572 388.667 422.291C389.125 422.01 389.66 421.869 390.274 421.869C390.887 421.869 391.423 422.01 391.88 422.291C392.338 422.572 392.693 422.967 392.946 423.476C393.199 423.984 393.325 424.578 393.325 425.257C393.325 425.933 393.199 426.524 392.946 427.03C392.693 427.536 392.338 427.929 391.88 428.21C391.423 428.491 390.887 428.632 390.274 428.632ZM390.278 427.562C390.676 427.562 391.005 427.457 391.267 427.247C391.528 427.037 391.721 426.757 391.846 426.408C391.974 426.058 392.038 425.673 392.038 425.253C392.038 424.835 391.974 424.452 391.846 424.102C391.721 423.75 391.528 423.467 391.267 423.254C391.005 423.041 390.676 422.935 390.278 422.935C389.877 422.935 389.545 423.041 389.281 423.254C389.02 423.467 388.825 423.75 388.697 424.102C388.572 424.452 388.51 424.835 388.51 425.253C388.51 425.673 388.572 426.058 388.697 426.408C388.825 426.757 389.02 427.037 389.281 427.247C389.545 427.457 389.877 427.562 390.278 427.562ZM396.021 424.614V428.5H394.747V421.955H395.97V423.02H396.051C396.202 422.673 396.438 422.395 396.759 422.185C397.082 421.974 397.49 421.869 397.982 421.869C398.428 421.869 398.818 421.963 399.153 422.151C399.489 422.335 399.749 422.611 399.933 422.977C400.118 423.344 400.21 423.797 400.21 424.337V428.5H398.936V424.49C398.936 424.016 398.813 423.645 398.565 423.378C398.318 423.108 397.979 422.973 397.547 422.973C397.251 422.973 396.989 423.037 396.759 423.165C396.531 423.293 396.351 423.48 396.217 423.727C396.087 423.972 396.021 424.267 396.021 424.614ZM404.74 428.632C404.095 428.632 403.54 428.494 403.074 428.219C402.611 427.94 402.253 427.55 402 427.047C401.75 426.541 401.625 425.949 401.625 425.27C401.625 424.599 401.75 424.009 402 423.497C402.253 422.986 402.605 422.587 403.057 422.3C403.511 422.013 404.043 421.869 404.651 421.869C405.02 421.869 405.378 421.93 405.724 422.053C406.071 422.175 406.382 422.366 406.658 422.628C406.933 422.889 407.151 423.229 407.31 423.646C407.469 424.061 407.548 424.565 407.548 425.159V425.611H402.345V424.656H406.3C406.3 424.321 406.232 424.024 406.095 423.766C405.959 423.504 405.767 423.298 405.52 423.148C405.276 422.997 404.989 422.922 404.659 422.922C404.301 422.922 403.989 423.01 403.722 423.186C403.457 423.359 403.253 423.587 403.108 423.868C402.966 424.146 402.895 424.449 402.895 424.776V425.521C402.895 425.959 402.972 426.331 403.125 426.638C403.281 426.945 403.499 427.179 403.777 427.341C404.055 427.5 404.381 427.58 404.753 427.58C404.994 427.58 405.214 427.545 405.413 427.477C405.612 427.406 405.784 427.301 405.929 427.162C406.074 427.023 406.185 426.851 406.261 426.646L407.467 426.864C407.371 427.219 407.197 427.53 406.947 427.797C406.7 428.061 406.389 428.267 406.014 428.415C405.642 428.56 405.217 428.632 404.74 428.632ZM410.569 419.773L410.458 425.99H409.277L409.167 419.773H410.569ZM409.87 428.581C409.634 428.581 409.432 428.499 409.265 428.334C409.097 428.166 409.015 427.964 409.017 427.729C409.015 427.496 409.097 427.297 409.265 427.132C409.432 426.964 409.634 426.881 409.87 426.881C410.1 426.881 410.299 426.964 410.466 427.132C410.634 427.297 410.719 427.496 410.722 427.729C410.719 427.885 410.678 428.028 410.598 428.159C410.522 428.287 410.419 428.389 410.292 428.466C410.164 428.543 410.023 428.581 409.87 428.581Z" fill="#A1A1AA"/>
<g filter="url(#filter0_dd_2025_3916)">
<rect x="226.6" y="459.5" width="51.8" height="22.8" rx="6.6" fill="#FAFAFA"/>
<rect x="226.6" y="459.5" width="51.8" height="22.8" rx="6.6" stroke="#D4D4D8" stroke-width="1.2"/>
<path d="M234.959 474.9V466.173H240.431V467.306H236.276V469.966H240.145V471.095H236.276V473.767H240.482V474.9H234.959ZM242.087 474.9V468.355H243.319V469.395H243.387C243.506 469.042 243.716 468.765 244.018 468.564C244.322 468.359 244.665 468.257 245.049 468.257C245.128 468.257 245.222 468.26 245.33 468.265C245.441 468.271 245.527 468.278 245.59 468.287V469.505C245.539 469.491 245.448 469.475 245.317 469.458C245.187 469.439 245.056 469.429 244.925 469.429C244.624 469.429 244.356 469.493 244.12 469.62C243.887 469.745 243.702 469.92 243.566 470.145C243.429 470.366 243.361 470.619 243.361 470.903V474.9H242.087ZM246.693 474.9V468.355H247.967V474.9H246.693ZM247.336 467.345C247.114 467.345 246.924 467.271 246.765 467.123C246.609 466.973 246.531 466.794 246.531 466.586C246.531 466.376 246.609 466.197 246.765 466.049C246.924 465.899 247.114 465.824 247.336 465.824C247.558 465.824 247.747 465.899 247.903 466.049C248.062 466.197 248.141 466.376 248.141 466.586C248.141 466.794 248.062 466.973 247.903 467.123C247.747 467.271 247.558 467.345 247.336 467.345ZM250.853 472.68L250.844 471.125H251.066L253.674 468.355H255.199L252.225 471.508H252.025L250.853 472.68ZM249.681 474.9V466.173H250.955V474.9H249.681ZM253.814 474.9L251.471 471.789L252.348 470.899L255.378 474.9H253.814ZM262.464 474.9H259.639V466.173H262.553C263.409 466.173 264.143 466.348 264.757 466.697C265.37 467.044 265.84 467.542 266.167 468.193C266.497 468.841 266.661 469.618 266.661 470.524C266.661 471.433 266.495 472.214 266.163 472.868C265.833 473.521 265.356 474.024 264.731 474.376C264.106 474.725 263.35 474.9 262.464 474.9ZM260.955 473.75H262.391C263.056 473.75 263.609 473.625 264.049 473.375C264.489 473.122 264.819 472.757 265.038 472.279C265.257 471.799 265.366 471.214 265.366 470.524C265.366 469.839 265.257 469.258 265.038 468.781C264.822 468.304 264.499 467.941 264.07 467.694C263.641 467.447 263.109 467.324 262.472 467.324H260.955V473.75ZM268.485 474.981C268.252 474.981 268.052 474.899 267.884 474.734C267.717 474.566 267.633 474.365 267.633 474.129C267.633 473.896 267.717 473.697 267.884 473.532C268.052 473.365 268.252 473.281 268.485 473.281C268.718 473.281 268.918 473.365 269.086 473.532C269.254 473.697 269.337 473.896 269.337 474.129C269.337 474.285 269.298 474.429 269.218 474.559C269.141 474.687 269.039 474.789 268.911 474.866C268.784 474.943 268.641 474.981 268.485 474.981Z" fill="#18181B"/>
<path d="M218.6 439.846C218.6 438.843 219.736 438.31 220.501 438.87L220.648 438.997L233.703 452.052C234.459 452.808 233.923 454.1 232.854 454.1H226.698C226.141 454.1 225.605 454.294 225.178 454.644L225.001 454.803L220.648 459.156C219.893 459.912 218.6 459.376 218.6 458.308V439.846Z" fill="#FAFAFA" stroke="#D4D4D8" stroke-width="1.2"/>
</g>
<path d="M60 230H325C331.351 230 336.5 235.149 336.5 241.5V249.5C336.5 255.851 331.351 261 325 261H60C53.6487 261 48.5 255.851 48.5 249.5V241.5C48.5 235.149 53.6487 230 60 230Z" fill="url(#paint4_linear_2025_3916)"/>
<path d="M60 230H325C331.351 230 336.5 235.149 336.5 241.5V249.5C336.5 255.851 331.351 261 325 261H60C53.6487 261 48.5 255.851 48.5 249.5V241.5C48.5 235.149 53.6487 230 60 230Z" stroke="url(#paint5_linear_2025_3916)"/>
<path d="M62.6676 249.5L60.2472 240.773H61.6321L63.3324 247.531H63.4134L65.1818 240.773H66.554L68.3224 247.536H68.4034L70.0994 240.773H71.4886L69.0639 249.5H67.7386L65.902 242.963H65.8338L63.9972 249.5H62.6676ZM74.7635 249.632C74.1186 249.632 73.5632 249.494 73.0973 249.219C72.6342 248.94 72.2763 248.55 72.0234 248.047C71.7734 247.541 71.6484 246.949 71.6484 246.27C71.6484 245.599 71.7734 245.009 72.0234 244.497C72.2763 243.986 72.6286 243.587 73.0803 243.3C73.5348 243.013 74.0661 242.869 74.674 242.869C75.0433 242.869 75.4013 242.93 75.7479 243.053C76.0945 243.175 76.4055 243.366 76.6811 243.628C76.9567 243.889 77.174 244.229 77.3331 244.646C77.4922 245.061 77.5717 245.565 77.5717 246.159V246.611H72.3686V245.656H76.3232C76.3232 245.321 76.255 245.024 76.1186 244.766C75.9822 244.504 75.7905 244.298 75.5433 244.148C75.299 243.997 75.0121 243.922 74.6825 243.922C74.3246 243.922 74.0121 244.01 73.745 244.186C73.4808 244.359 73.2763 244.587 73.1314 244.868C72.9893 245.146 72.9183 245.449 72.9183 245.776V246.521C72.9183 246.959 72.995 247.331 73.1484 247.638C73.3047 247.945 73.522 248.179 73.8004 248.341C74.0788 248.5 74.4041 248.58 74.7763 248.58C75.0178 248.58 75.2379 248.545 75.4368 248.477C75.6357 248.406 75.8075 248.301 75.9524 248.162C76.0973 248.023 76.2081 247.851 76.2848 247.646L77.4908 247.864C77.3942 248.219 77.2209 248.53 76.9709 248.797C76.7237 249.061 76.4126 249.267 76.0376 249.415C75.6655 249.56 75.2408 249.632 74.7635 249.632ZM83.4354 245.614V249.5H82.1612V242.955H83.3842V244.02H83.4652C83.6158 243.673 83.8516 243.395 84.1726 243.185C84.4964 242.974 84.9041 242.869 85.3956 242.869C85.8416 242.869 86.2322 242.963 86.5675 243.151C86.9027 243.335 87.1626 243.611 87.3473 243.977C87.532 244.344 87.6243 244.797 87.6243 245.337V249.5H86.3501V245.49C86.3501 245.016 86.2266 244.645 85.9794 244.378C85.7322 244.108 85.3928 243.973 84.9609 243.973C84.6655 243.973 84.4027 244.037 84.1726 244.165C83.9453 244.293 83.7649 244.48 83.6314 244.727C83.5007 244.972 83.4354 245.267 83.4354 245.614ZM92.1541 249.632C91.5092 249.632 90.9538 249.494 90.4879 249.219C90.0249 248.94 89.6669 248.55 89.4141 248.047C89.1641 247.541 89.0391 246.949 89.0391 246.27C89.0391 245.599 89.1641 245.009 89.4141 244.497C89.6669 243.986 90.0192 243.587 90.4709 243.3C90.9254 243.013 91.4567 242.869 92.0646 242.869C92.4339 242.869 92.7919 242.93 93.1385 243.053C93.4851 243.175 93.7962 243.366 94.0717 243.628C94.3473 243.889 94.5646 244.229 94.7237 244.646C94.8828 245.061 94.9624 245.565 94.9624 246.159V246.611H89.7592V245.656H93.7138C93.7138 245.321 93.6456 245.024 93.5092 244.766C93.3729 244.504 93.1811 244.298 92.9339 244.148C92.6896 243.997 92.4027 243.922 92.0732 243.922C91.7152 243.922 91.4027 244.01 91.1357 244.186C90.8714 244.359 90.6669 244.587 90.522 244.868C90.38 245.146 90.3089 245.449 90.3089 245.776V246.521C90.3089 246.959 90.3857 247.331 90.5391 247.638C90.6953 247.945 90.9126 248.179 91.1911 248.341C91.4695 248.5 91.7947 248.58 92.1669 248.58C92.4084 248.58 92.6286 248.545 92.8274 248.477C93.0263 248.406 93.1982 248.301 93.343 248.162C93.4879 248.023 93.5987 247.851 93.6754 247.646L94.8814 247.864C94.7848 248.219 94.6115 248.53 94.3615 248.797C94.1143 249.061 93.8033 249.267 93.4283 249.415C93.0561 249.56 92.6314 249.632 92.1541 249.632ZM99.1971 249.632C98.5522 249.632 97.9968 249.494 97.5309 249.219C97.0678 248.94 96.7099 248.55 96.457 248.047C96.207 247.541 96.082 246.949 96.082 246.27C96.082 245.599 96.207 245.009 96.457 244.497C96.7099 243.986 97.0621 243.587 97.5138 243.3C97.9684 243.013 98.4996 242.869 99.1076 242.869C99.4769 242.869 99.8349 242.93 100.181 243.053C100.528 243.175 100.839 243.366 101.115 243.628C101.39 243.889 101.608 244.229 101.767 244.646C101.926 245.061 102.005 245.565 102.005 246.159V246.611H96.8022V245.656H100.757C100.757 245.321 100.689 245.024 100.552 244.766C100.416 244.504 100.224 244.298 99.9769 244.148C99.7326 243.997 99.4457 243.922 99.1161 243.922C98.7582 243.922 98.4457 244.01 98.1786 244.186C97.9144 244.359 97.7099 244.587 97.565 244.868C97.4229 245.146 97.3519 245.449 97.3519 245.776V246.521C97.3519 246.959 97.4286 247.331 97.582 247.638C97.7383 247.945 97.9556 248.179 98.234 248.341C98.5124 248.5 98.8377 248.58 99.2099 248.58C99.4513 248.58 99.6715 248.545 99.8704 248.477C100.069 248.406 100.241 248.301 100.386 248.162C100.531 248.023 100.642 247.851 100.718 247.646L101.924 247.864C101.828 248.219 101.654 248.53 101.404 248.797C101.157 249.061 100.846 249.267 100.471 249.415C100.099 249.56 99.6744 249.632 99.1971 249.632ZM105.869 249.628C105.341 249.628 104.869 249.493 104.455 249.223C104.043 248.95 103.719 248.562 103.483 248.06C103.25 247.554 103.134 246.947 103.134 246.24C103.134 245.533 103.251 244.928 103.487 244.425C103.726 243.922 104.053 243.537 104.467 243.27C104.882 243.003 105.352 242.869 105.878 242.869C106.284 242.869 106.611 242.938 106.858 243.074C107.108 243.207 107.301 243.364 107.438 243.543C107.577 243.722 107.685 243.879 107.761 244.016H107.838V240.773H109.112V249.5H107.868V248.482H107.761C107.685 248.621 107.574 248.78 107.429 248.959C107.287 249.138 107.091 249.294 106.841 249.428C106.591 249.561 106.267 249.628 105.869 249.628ZM106.151 248.541C106.517 248.541 106.827 248.445 107.08 248.251C107.335 248.055 107.528 247.784 107.659 247.438C107.793 247.091 107.859 246.687 107.859 246.227C107.859 245.773 107.794 245.375 107.663 245.034C107.533 244.693 107.341 244.428 107.088 244.237C106.835 244.047 106.523 243.952 106.151 243.952C105.767 243.952 105.447 244.051 105.192 244.25C104.936 244.449 104.743 244.72 104.612 245.064C104.484 245.408 104.42 245.795 104.42 246.227C104.42 246.665 104.486 247.058 104.616 247.408C104.747 247.757 104.94 248.034 105.196 248.239C105.455 248.44 105.773 248.541 106.151 248.541ZM117.162 242.955V243.977H113.587V242.955H117.162ZM114.545 241.386H115.82V247.578C115.82 247.825 115.857 248.011 115.93 248.136C116.004 248.259 116.099 248.342 116.216 248.388C116.335 248.43 116.464 248.452 116.604 248.452C116.706 248.452 116.795 248.445 116.872 248.43C116.949 248.416 117.009 248.405 117.051 248.396L117.281 249.449C117.207 249.477 117.102 249.506 116.966 249.534C116.83 249.565 116.659 249.582 116.455 249.585C116.119 249.591 115.807 249.531 115.517 249.406C115.227 249.281 114.993 249.088 114.814 248.827C114.635 248.565 114.545 248.237 114.545 247.842V241.386ZM121.258 249.632C120.645 249.632 120.109 249.491 119.652 249.21C119.194 248.929 118.839 248.536 118.586 248.03C118.333 247.524 118.207 246.933 118.207 246.257C118.207 245.578 118.333 244.984 118.586 244.476C118.839 243.967 119.194 243.572 119.652 243.291C120.109 243.01 120.645 242.869 121.258 242.869C121.872 242.869 122.407 243.01 122.865 243.291C123.322 243.572 123.677 243.967 123.93 244.476C124.183 244.984 124.309 245.578 124.309 246.257C124.309 246.933 124.183 247.524 123.93 248.03C123.677 248.536 123.322 248.929 122.865 249.21C122.407 249.491 121.872 249.632 121.258 249.632ZM121.262 248.562C121.66 248.562 121.99 248.457 122.251 248.247C122.512 248.037 122.706 247.757 122.831 247.408C122.958 247.058 123.022 246.673 123.022 246.253C123.022 245.835 122.958 245.452 122.831 245.102C122.706 244.75 122.512 244.467 122.251 244.254C121.99 244.041 121.66 243.935 121.262 243.935C120.862 243.935 120.529 244.041 120.265 244.254C120.004 244.467 119.809 244.75 119.681 245.102C119.556 245.452 119.494 245.835 119.494 246.253C119.494 246.673 119.556 247.058 119.681 247.408C119.809 247.757 120.004 248.037 120.265 248.247C120.529 248.457 120.862 248.562 121.262 248.562ZM133.054 246.786V242.955H134.332V249.5H133.079V248.366H133.011C132.86 248.716 132.619 249.007 132.287 249.24C131.957 249.47 131.547 249.585 131.055 249.585C130.635 249.585 130.262 249.493 129.939 249.308C129.618 249.121 129.365 248.844 129.18 248.477C128.998 248.111 128.907 247.658 128.907 247.118V242.955H130.181V246.964C130.181 247.411 130.305 247.766 130.552 248.03C130.799 248.294 131.12 248.426 131.515 248.426C131.754 248.426 131.991 248.366 132.227 248.247C132.466 248.128 132.663 247.947 132.819 247.706C132.978 247.464 133.056 247.158 133.054 246.786ZM136.044 251.955V242.955H137.288V244.016H137.395C137.469 243.879 137.575 243.722 137.714 243.543C137.854 243.364 138.047 243.207 138.294 243.074C138.541 242.938 138.868 242.869 139.274 242.869C139.803 242.869 140.274 243.003 140.689 243.27C141.104 243.537 141.429 243.922 141.665 244.425C141.903 244.928 142.023 245.533 142.023 246.24C142.023 246.947 141.905 247.554 141.669 248.06C141.433 248.562 141.109 248.95 140.697 249.223C140.286 249.493 139.815 249.628 139.287 249.628C138.889 249.628 138.564 249.561 138.311 249.428C138.061 249.294 137.865 249.138 137.723 248.959C137.581 248.78 137.472 248.621 137.395 248.482H137.318V251.955H136.044ZM137.293 246.227C137.293 246.687 137.359 247.091 137.493 247.438C137.626 247.784 137.82 248.055 138.072 248.251C138.325 248.445 138.635 248.541 139.001 248.541C139.382 248.541 139.7 248.44 139.956 248.239C140.212 248.034 140.405 247.757 140.536 247.408C140.669 247.058 140.736 246.665 140.736 246.227C140.736 245.795 140.67 245.408 140.54 245.064C140.412 244.72 140.219 244.449 139.96 244.25C139.705 244.051 139.385 243.952 139.001 243.952C138.632 243.952 138.32 244.047 138.064 244.237C137.811 244.428 137.619 244.693 137.489 245.034C137.358 245.375 137.293 245.773 137.293 246.227ZM145.901 249.628C145.372 249.628 144.901 249.493 144.486 249.223C144.074 248.95 143.75 248.562 143.514 248.06C143.281 247.554 143.165 246.947 143.165 246.24C143.165 245.533 143.283 244.928 143.518 244.425C143.757 243.922 144.084 243.537 144.499 243.27C144.913 243.003 145.384 242.869 145.909 242.869C146.315 242.869 146.642 242.938 146.889 243.074C147.139 243.207 147.332 243.364 147.469 243.543C147.608 243.722 147.716 243.879 147.793 244.016H147.869V240.773H149.143V249.5H147.899V248.482H147.793C147.716 248.621 147.605 248.78 147.46 248.959C147.318 249.138 147.122 249.294 146.872 249.428C146.622 249.561 146.298 249.628 145.901 249.628ZM146.182 248.541C146.548 248.541 146.858 248.445 147.111 248.251C147.366 248.055 147.56 247.784 147.69 247.438C147.824 247.091 147.891 246.687 147.891 246.227C147.891 245.773 147.825 245.375 147.695 245.034C147.564 244.693 147.372 244.428 147.119 244.237C146.866 244.047 146.554 243.952 146.182 243.952C145.798 243.952 145.479 244.051 145.223 244.25C144.967 244.449 144.774 244.72 144.643 245.064C144.516 245.408 144.452 245.795 144.452 246.227C144.452 246.665 144.517 247.058 144.648 247.408C144.778 247.757 144.972 248.034 145.227 248.239C145.486 248.44 145.804 248.541 146.182 248.541ZM152.867 249.645C152.452 249.645 152.077 249.568 151.742 249.415C151.407 249.259 151.141 249.033 150.945 248.737C150.752 248.442 150.655 248.08 150.655 247.651C150.655 247.281 150.726 246.977 150.868 246.739C151.01 246.5 151.202 246.311 151.444 246.172C151.685 246.033 151.955 245.928 152.253 245.857C152.551 245.786 152.855 245.732 153.165 245.695C153.557 245.649 153.875 245.612 154.12 245.584C154.364 245.553 154.542 245.503 154.652 245.435C154.763 245.366 154.819 245.256 154.819 245.102V245.072C154.819 244.7 154.713 244.412 154.503 244.207C154.296 244.003 153.986 243.901 153.574 243.901C153.145 243.901 152.807 243.996 152.56 244.186C152.316 244.374 152.147 244.582 152.053 244.812L150.855 244.54C150.998 244.142 151.205 243.821 151.478 243.577C151.753 243.33 152.07 243.151 152.428 243.04C152.786 242.926 153.162 242.869 153.557 242.869C153.819 242.869 154.096 242.901 154.388 242.963C154.684 243.023 154.959 243.134 155.215 243.295C155.473 243.457 155.685 243.689 155.85 243.99C156.015 244.288 156.097 244.676 156.097 245.153V249.5H154.853V248.605H154.801C154.719 248.77 154.596 248.932 154.431 249.091C154.266 249.25 154.054 249.382 153.796 249.487C153.537 249.592 153.228 249.645 152.867 249.645ZM153.144 248.622C153.496 248.622 153.797 248.553 154.047 248.413C154.3 248.274 154.492 248.092 154.623 247.868C154.756 247.641 154.823 247.398 154.823 247.139V246.295C154.777 246.341 154.689 246.384 154.559 246.423C154.431 246.46 154.284 246.493 154.12 246.521C153.955 246.547 153.794 246.571 153.638 246.594C153.482 246.614 153.351 246.631 153.246 246.645C152.999 246.676 152.773 246.729 152.569 246.803C152.367 246.876 152.205 246.983 152.083 247.122C151.963 247.259 151.904 247.44 151.904 247.668C151.904 247.983 152.02 248.222 152.253 248.384C152.486 248.543 152.783 248.622 153.144 248.622ZM160.849 242.955V243.977H157.274V242.955H160.849ZM158.233 241.386H159.507V247.578C159.507 247.825 159.544 248.011 159.618 248.136C159.692 248.259 159.787 248.342 159.903 248.388C160.023 248.43 160.152 248.452 160.291 248.452C160.393 248.452 160.483 248.445 160.56 248.43C160.636 248.416 160.696 248.405 160.739 248.396L160.969 249.449C160.895 249.477 160.79 249.506 160.653 249.534C160.517 249.565 160.347 249.582 160.142 249.585C159.807 249.591 159.494 249.531 159.205 249.406C158.915 249.281 158.68 249.088 158.501 248.827C158.322 248.565 158.233 248.237 158.233 247.842V241.386ZM165.01 249.632C164.365 249.632 163.809 249.494 163.343 249.219C162.88 248.94 162.522 248.55 162.27 248.047C162.02 247.541 161.895 246.949 161.895 246.27C161.895 245.599 162.02 245.009 162.27 244.497C162.522 243.986 162.875 243.587 163.326 243.3C163.781 243.013 164.312 242.869 164.92 242.869C165.289 242.869 165.647 242.93 165.994 243.053C166.341 243.175 166.652 243.366 166.927 243.628C167.203 243.889 167.42 244.229 167.579 244.646C167.738 245.061 167.818 245.565 167.818 246.159V246.611H162.615V245.656H166.569C166.569 245.321 166.501 245.024 166.365 244.766C166.228 244.504 166.037 244.298 165.789 244.148C165.545 243.997 165.258 243.922 164.929 243.922C164.571 243.922 164.258 244.01 163.991 244.186C163.727 244.359 163.522 244.587 163.377 244.868C163.235 245.146 163.164 245.449 163.164 245.776V246.521C163.164 246.959 163.241 247.331 163.395 247.638C163.551 247.945 163.768 248.179 164.047 248.341C164.325 248.5 164.65 248.58 165.022 248.58C165.264 248.58 165.484 248.545 165.683 248.477C165.882 248.406 166.054 248.301 166.199 248.162C166.343 248.023 166.454 247.851 166.531 247.646L167.737 247.864C167.64 248.219 167.467 248.53 167.217 248.797C166.97 249.061 166.659 249.267 166.284 249.415C165.912 249.56 165.487 249.632 165.01 249.632ZM175.463 242.955V243.977H171.887V242.955H175.463ZM172.846 241.386H174.12V247.578C174.12 247.825 174.157 248.011 174.231 248.136C174.305 248.259 174.4 248.342 174.517 248.388C174.636 248.43 174.765 248.452 174.904 248.452C175.007 248.452 175.096 248.445 175.173 248.43C175.25 248.416 175.309 248.405 175.352 248.396L175.582 249.449C175.508 249.477 175.403 249.506 175.267 249.534C175.13 249.565 174.96 249.582 174.755 249.585C174.42 249.591 174.108 249.531 173.818 249.406C173.528 249.281 173.294 249.088 173.115 248.827C172.936 248.565 172.846 248.237 172.846 247.842V241.386ZM178.287 245.614V249.5H177.013V240.773H178.27V244.02H178.351C178.504 243.668 178.739 243.388 179.054 243.18C179.369 242.973 179.781 242.869 180.29 242.869C180.739 242.869 181.131 242.962 181.466 243.146C181.804 243.331 182.065 243.607 182.25 243.973C182.438 244.337 182.531 244.791 182.531 245.337V249.5H181.257V245.49C181.257 245.01 181.134 244.638 180.886 244.374C180.639 244.107 180.295 243.973 179.855 243.973C179.554 243.973 179.284 244.037 179.045 244.165C178.81 244.293 178.624 244.48 178.487 244.727C178.354 244.972 178.287 245.267 178.287 245.614ZM184.232 249.5V242.955H185.506V249.5H184.232ZM184.875 241.945C184.653 241.945 184.463 241.871 184.304 241.723C184.148 241.572 184.07 241.393 184.07 241.186C184.07 240.976 184.148 240.797 184.304 240.649C184.463 240.499 184.653 240.423 184.875 240.423C185.097 240.423 185.286 240.499 185.442 240.649C185.601 240.797 185.68 240.976 185.68 241.186C185.68 241.393 185.601 241.572 185.442 241.723C185.286 241.871 185.097 241.945 184.875 241.945ZM192.125 244.553L190.97 244.757C190.922 244.609 190.845 244.469 190.74 244.335C190.637 244.202 190.498 244.092 190.322 244.007C190.146 243.922 189.926 243.879 189.662 243.879C189.301 243.879 189 243.96 188.758 244.122C188.517 244.281 188.396 244.487 188.396 244.74C188.396 244.959 188.477 245.135 188.639 245.268C188.801 245.402 189.062 245.511 189.423 245.597L190.463 245.835C191.065 245.974 191.514 246.189 191.809 246.479C192.105 246.768 192.252 247.145 192.252 247.608C192.252 248 192.139 248.349 191.912 248.656C191.687 248.96 191.373 249.199 190.97 249.372C190.569 249.545 190.105 249.632 189.576 249.632C188.843 249.632 188.245 249.476 187.782 249.163C187.319 248.848 187.035 248.401 186.93 247.821L188.162 247.634C188.238 247.955 188.396 248.197 188.635 248.362C188.873 248.524 189.184 248.605 189.568 248.605C189.985 248.605 190.319 248.518 190.569 248.345C190.819 248.169 190.944 247.955 190.944 247.702C190.944 247.497 190.868 247.325 190.714 247.186C190.564 247.047 190.332 246.942 190.02 246.871L188.912 246.628C188.301 246.489 187.849 246.267 187.556 245.963C187.267 245.659 187.122 245.274 187.122 244.808C187.122 244.422 187.23 244.084 187.446 243.794C187.662 243.504 187.96 243.278 188.341 243.116C188.721 242.952 189.157 242.869 189.649 242.869C190.356 242.869 190.913 243.023 191.319 243.33C191.725 243.634 191.994 244.041 192.125 244.553ZM198.103 245.614V249.5H196.829V240.773H198.086V244.02H198.167C198.321 243.668 198.555 243.388 198.87 243.18C199.186 242.973 199.598 242.869 200.106 242.869C200.555 242.869 200.947 242.962 201.282 243.146C201.62 243.331 201.882 243.607 202.066 243.973C202.254 244.337 202.348 244.791 202.348 245.337V249.5H201.074V245.49C201.074 245.01 200.95 244.638 200.703 244.374C200.456 244.107 200.112 243.973 199.672 243.973C199.37 243.973 199.1 244.037 198.862 244.165C198.626 244.293 198.44 244.48 198.304 244.727C198.17 244.972 198.103 245.267 198.103 245.614ZM206.869 249.632C206.224 249.632 205.669 249.494 205.203 249.219C204.74 248.94 204.382 248.55 204.129 248.047C203.879 247.541 203.754 246.949 203.754 246.27C203.754 245.599 203.879 245.009 204.129 244.497C204.382 243.986 204.734 243.587 205.186 243.3C205.64 243.013 206.172 242.869 206.779 242.869C207.149 242.869 207.507 242.93 207.853 243.053C208.2 243.175 208.511 243.366 208.787 243.628C209.062 243.889 209.279 244.229 209.439 244.646C209.598 245.061 209.677 245.565 209.677 246.159V246.611H204.474V245.656H208.429C208.429 245.321 208.36 245.024 208.224 244.766C208.088 244.504 207.896 244.298 207.649 244.148C207.404 243.997 207.118 243.922 206.788 243.922C206.43 243.922 206.118 244.01 205.85 244.186C205.586 244.359 205.382 244.587 205.237 244.868C205.095 245.146 205.024 245.449 205.024 245.776V246.521C205.024 246.959 205.1 247.331 205.254 247.638C205.41 247.945 205.627 248.179 205.906 248.341C206.184 248.5 206.51 248.58 206.882 248.58C207.123 248.58 207.343 248.545 207.542 248.477C207.741 248.406 207.913 248.301 208.058 248.162C208.203 248.023 208.314 247.851 208.39 247.646L209.596 247.864C209.5 248.219 209.326 248.53 209.076 248.797C208.829 249.061 208.518 249.267 208.143 249.415C207.771 249.56 207.346 249.632 206.869 249.632ZM212.996 249.645C212.581 249.645 212.206 249.568 211.871 249.415C211.536 249.259 211.27 249.033 211.074 248.737C210.881 248.442 210.784 248.08 210.784 247.651C210.784 247.281 210.855 246.977 210.997 246.739C211.139 246.5 211.331 246.311 211.572 246.172C211.814 246.033 212.084 245.928 212.382 245.857C212.68 245.786 212.984 245.732 213.294 245.695C213.686 245.649 214.004 245.612 214.249 245.584C214.493 245.553 214.67 245.503 214.781 245.435C214.892 245.366 214.947 245.256 214.947 245.102V245.072C214.947 244.7 214.842 244.412 214.632 244.207C214.425 244.003 214.115 243.901 213.703 243.901C213.274 243.901 212.936 243.996 212.689 244.186C212.445 244.374 212.276 244.582 212.182 244.812L210.984 244.54C211.126 244.142 211.334 243.821 211.607 243.577C211.882 243.33 212.199 243.151 212.557 243.04C212.915 242.926 213.291 242.869 213.686 242.869C213.947 242.869 214.224 242.901 214.517 242.963C214.813 243.023 215.088 243.134 215.344 243.295C215.602 243.457 215.814 243.689 215.979 243.99C216.143 244.288 216.226 244.676 216.226 245.153V249.5H214.982V248.605H214.93C214.848 248.77 214.724 248.932 214.56 249.091C214.395 249.25 214.183 249.382 213.925 249.487C213.666 249.592 213.357 249.645 212.996 249.645ZM213.273 248.622C213.625 248.622 213.926 248.553 214.176 248.413C214.429 248.274 214.621 248.092 214.751 247.868C214.885 247.641 214.952 247.398 214.952 247.139V246.295C214.906 246.341 214.818 246.384 214.688 246.423C214.56 246.46 214.413 246.493 214.249 246.521C214.084 246.547 213.923 246.571 213.767 246.594C213.611 246.614 213.48 246.631 213.375 246.645C213.128 246.676 212.902 246.729 212.697 246.803C212.496 246.876 212.334 246.983 212.212 247.122C212.092 247.259 212.033 247.44 212.033 247.668C212.033 247.983 212.149 248.222 212.382 248.384C212.615 248.543 212.912 248.622 213.273 248.622ZM220.373 249.628C219.845 249.628 219.373 249.493 218.958 249.223C218.547 248.95 218.223 248.562 217.987 248.06C217.754 247.554 217.637 246.947 217.637 246.24C217.637 245.533 217.755 244.928 217.991 244.425C218.23 243.922 218.556 243.537 218.971 243.27C219.386 243.003 219.856 242.869 220.382 242.869C220.788 242.869 221.115 242.938 221.362 243.074C221.612 243.207 221.805 243.364 221.941 243.543C222.081 243.722 222.189 243.879 222.265 244.016H222.342V240.773H223.616V249.5H222.372V248.482H222.265C222.189 248.621 222.078 248.78 221.933 248.959C221.791 249.138 221.595 249.294 221.345 249.428C221.095 249.561 220.771 249.628 220.373 249.628ZM220.654 248.541C221.021 248.541 221.331 248.445 221.583 248.251C221.839 248.055 222.032 247.784 222.163 247.438C222.297 247.091 222.363 246.687 222.363 246.227C222.363 245.773 222.298 245.375 222.167 245.034C222.037 244.693 221.845 244.428 221.592 244.237C221.339 244.047 221.027 243.952 220.654 243.952C220.271 243.952 219.951 244.051 219.696 244.25C219.44 244.449 219.247 244.72 219.116 245.064C218.988 245.408 218.924 245.795 218.924 246.227C218.924 246.665 218.99 247.058 219.12 247.408C219.251 247.757 219.444 248.034 219.7 248.239C219.958 248.44 220.277 248.541 220.654 248.541ZM225.435 249.5V242.955H226.709V249.5H225.435ZM226.078 241.945C225.857 241.945 225.666 241.871 225.507 241.723C225.351 241.572 225.273 241.393 225.273 241.186C225.273 240.976 225.351 240.797 225.507 240.649C225.666 240.499 225.857 240.423 226.078 240.423C226.3 240.423 226.489 240.499 226.645 240.649C226.804 240.797 226.884 240.976 226.884 241.186C226.884 241.393 226.804 241.572 226.645 241.723C226.489 241.871 226.3 241.945 226.078 241.945ZM229.697 245.614V249.5H228.423V242.955H229.646V244.02H229.727C229.877 243.673 230.113 243.395 230.434 243.185C230.758 242.974 231.166 242.869 231.657 242.869C232.103 242.869 232.494 242.963 232.829 243.151C233.164 243.335 233.424 243.611 233.609 243.977C233.794 244.344 233.886 244.797 233.886 245.337V249.5H232.612V245.49C232.612 245.016 232.488 244.645 232.241 244.378C231.994 244.108 231.654 243.973 231.223 243.973C230.927 243.973 230.664 244.037 230.434 244.165C230.207 244.293 230.027 244.48 229.893 244.727C229.762 244.972 229.697 245.267 229.697 245.614ZM238.339 252.091C237.819 252.091 237.372 252.023 236.997 251.886C236.625 251.75 236.321 251.57 236.085 251.345C235.849 251.121 235.673 250.875 235.556 250.608L236.652 250.156C236.728 250.281 236.831 250.413 236.958 250.553C237.089 250.695 237.265 250.815 237.487 250.915C237.711 251.014 238 251.064 238.352 251.064C238.835 251.064 239.234 250.946 239.549 250.71C239.865 250.477 240.022 250.105 240.022 249.594V248.307H239.941C239.865 248.446 239.754 248.601 239.609 248.771C239.467 248.942 239.271 249.089 239.021 249.214C238.771 249.339 238.446 249.402 238.045 249.402C237.528 249.402 237.062 249.281 236.647 249.04C236.235 248.795 235.909 248.436 235.667 247.962C235.429 247.484 235.309 246.898 235.309 246.202C235.309 245.506 235.427 244.909 235.663 244.412C235.902 243.915 236.228 243.534 236.643 243.27C237.058 243.003 237.528 242.869 238.054 242.869C238.46 242.869 238.788 242.938 239.038 243.074C239.288 243.207 239.483 243.364 239.622 243.543C239.764 243.722 239.873 243.879 239.95 244.016H240.044V242.955H241.292V249.645C241.292 250.207 241.162 250.669 240.9 251.03C240.639 251.391 240.285 251.658 239.839 251.831C239.396 252.004 238.896 252.091 238.339 252.091ZM238.326 248.345C238.693 248.345 239.002 248.26 239.255 248.089C239.511 247.916 239.704 247.669 239.835 247.348C239.968 247.024 240.035 246.636 240.035 246.185C240.035 245.744 239.97 245.357 239.839 245.021C239.708 244.686 239.517 244.425 239.264 244.237C239.011 244.047 238.699 243.952 238.326 243.952C237.943 243.952 237.623 244.051 237.368 244.25C237.112 244.446 236.919 244.713 236.788 245.051C236.66 245.389 236.596 245.767 236.596 246.185C236.596 246.614 236.662 246.99 236.792 247.314C236.923 247.638 237.116 247.891 237.372 248.072C237.63 248.254 237.949 248.345 238.326 248.345ZM246.279 249.5V240.773H247.553V244.016H247.63C247.704 243.879 247.81 243.722 247.95 243.543C248.089 243.364 248.282 243.207 248.529 243.074C248.776 242.938 249.103 242.869 249.509 242.869C250.038 242.869 250.509 243.003 250.924 243.27C251.339 243.537 251.664 243.922 251.9 244.425C252.138 244.928 252.258 245.533 252.258 246.24C252.258 246.947 252.14 247.554 251.904 248.06C251.668 248.562 251.344 248.95 250.933 249.223C250.521 249.493 250.05 249.628 249.522 249.628C249.124 249.628 248.799 249.561 248.546 249.428C248.296 249.294 248.1 249.138 247.958 248.959C247.816 248.78 247.707 248.621 247.63 248.482H247.523V249.5H246.279ZM247.528 246.227C247.528 246.687 247.594 247.091 247.728 247.438C247.862 247.784 248.055 248.055 248.308 248.251C248.56 248.445 248.87 248.541 249.237 248.541C249.617 248.541 249.935 248.44 250.191 248.239C250.447 248.034 250.64 247.757 250.771 247.408C250.904 247.058 250.971 246.665 250.971 246.227C250.971 245.795 250.906 245.408 250.775 245.064C250.647 244.72 250.454 244.449 250.195 244.25C249.94 244.051 249.62 243.952 249.237 243.952C248.867 243.952 248.555 244.047 248.299 244.237C248.046 244.428 247.854 244.693 247.724 245.034C247.593 245.375 247.528 245.773 247.528 246.227ZM256.51 249.632C255.865 249.632 255.309 249.494 254.843 249.219C254.38 248.94 254.022 248.55 253.77 248.047C253.52 247.541 253.395 246.949 253.395 246.27C253.395 245.599 253.52 245.009 253.77 244.497C254.022 243.986 254.375 243.587 254.826 243.3C255.281 243.013 255.812 242.869 256.42 242.869C256.789 242.869 257.147 242.93 257.494 243.053C257.841 243.175 258.152 243.366 258.427 243.628C258.703 243.889 258.92 244.229 259.079 244.646C259.238 245.061 259.318 245.565 259.318 246.159V246.611H254.115V245.656H258.069C258.069 245.321 258.001 245.024 257.865 244.766C257.728 244.504 257.537 244.298 257.289 244.148C257.045 243.997 256.758 243.922 256.429 243.922C256.071 243.922 255.758 244.01 255.491 244.186C255.227 244.359 255.022 244.587 254.877 244.868C254.735 245.146 254.664 245.449 254.664 245.776V246.521C254.664 246.959 254.741 247.331 254.895 247.638C255.051 247.945 255.268 248.179 255.547 248.341C255.825 248.5 256.15 248.58 256.522 248.58C256.764 248.58 256.984 248.545 257.183 248.477C257.382 248.406 257.554 248.301 257.699 248.162C257.843 248.023 257.954 247.851 258.031 247.646L259.237 247.864C259.14 248.219 258.967 248.53 258.717 248.797C258.47 249.061 258.159 249.267 257.784 249.415C257.412 249.56 256.987 249.632 256.51 249.632ZM263.847 242.955V243.977H260.148V242.955H263.847ZM261.162 249.5V242.196C261.162 241.787 261.251 241.447 261.43 241.178C261.609 240.905 261.847 240.702 262.142 240.568C262.438 240.432 262.759 240.364 263.105 240.364C263.361 240.364 263.58 240.385 263.761 240.428C263.943 240.467 264.078 240.504 264.166 240.538L263.868 241.57C263.808 241.553 263.732 241.533 263.638 241.51C263.544 241.484 263.43 241.472 263.297 241.472C262.987 241.472 262.766 241.548 262.632 241.702C262.501 241.855 262.436 242.077 262.436 242.366V249.5H261.162ZM267.661 249.632C267.047 249.632 266.511 249.491 266.054 249.21C265.597 248.929 265.241 248.536 264.989 248.03C264.736 247.524 264.609 246.933 264.609 246.257C264.609 245.578 264.736 244.984 264.989 244.476C265.241 243.967 265.597 243.572 266.054 243.291C266.511 243.01 267.047 242.869 267.661 242.869C268.274 242.869 268.81 243.01 269.267 243.291C269.724 243.572 270.08 243.967 270.332 244.476C270.585 244.984 270.712 245.578 270.712 246.257C270.712 246.933 270.585 247.524 270.332 248.03C270.08 248.536 269.724 248.929 269.267 249.21C268.81 249.491 268.274 249.632 267.661 249.632ZM267.665 248.562C268.063 248.562 268.392 248.457 268.653 248.247C268.915 248.037 269.108 247.757 269.233 247.408C269.361 247.058 269.425 246.673 269.425 246.253C269.425 245.835 269.361 245.452 269.233 245.102C269.108 244.75 268.915 244.467 268.653 244.254C268.392 244.041 268.063 243.935 267.665 243.935C267.264 243.935 266.932 244.041 266.668 244.254C266.406 244.467 266.212 244.75 266.084 245.102C265.959 245.452 265.896 245.835 265.896 246.253C265.896 246.673 265.959 247.058 266.084 247.408C266.212 247.757 266.406 248.037 266.668 248.247C266.932 248.457 267.264 248.562 267.665 248.562ZM272.134 249.5V242.955H273.365V243.994H273.434C273.553 243.642 273.763 243.365 274.064 243.163C274.368 242.959 274.712 242.857 275.096 242.857C275.175 242.857 275.269 242.859 275.377 242.865C275.488 242.871 275.574 242.878 275.637 242.886V244.105C275.586 244.091 275.495 244.075 275.364 244.058C275.233 244.038 275.103 244.028 274.972 244.028C274.671 244.028 274.402 244.092 274.167 244.22C273.934 244.345 273.749 244.52 273.613 244.744C273.476 244.966 273.408 245.219 273.408 245.503V249.5H272.134ZM279.326 249.632C278.681 249.632 278.126 249.494 277.66 249.219C277.197 248.94 276.839 248.55 276.586 248.047C276.336 247.541 276.211 246.949 276.211 246.27C276.211 245.599 276.336 245.009 276.586 244.497C276.839 243.986 277.191 243.587 277.643 243.3C278.097 243.013 278.629 242.869 279.237 242.869C279.606 242.869 279.964 242.93 280.31 243.053C280.657 243.175 280.968 243.366 281.244 243.628C281.519 243.889 281.737 244.229 281.896 244.646C282.055 245.061 282.134 245.565 282.134 246.159V246.611H276.931V245.656H280.886C280.886 245.321 280.817 245.024 280.681 244.766C280.545 244.504 280.353 244.298 280.106 244.148C279.862 243.997 279.575 243.922 279.245 243.922C278.887 243.922 278.575 244.01 278.308 244.186C278.043 244.359 277.839 244.587 277.694 244.868C277.552 245.146 277.481 245.449 277.481 245.776V246.521C277.481 246.959 277.558 247.331 277.711 247.638C277.867 247.945 278.085 248.179 278.363 248.341C278.641 248.5 278.967 248.58 279.339 248.58C279.58 248.58 279.8 248.545 279.999 248.477C280.198 248.406 280.37 248.301 280.515 248.162C280.66 248.023 280.771 247.851 280.847 247.646L282.053 247.864C281.957 248.219 281.783 248.53 281.533 248.797C281.286 249.061 280.975 249.267 280.6 249.415C280.228 249.56 279.803 249.632 279.326 249.632ZM287.998 240.773V249.5H286.724V240.773H287.998ZM291.617 249.645C291.202 249.645 290.827 249.568 290.492 249.415C290.157 249.259 289.891 249.033 289.695 248.737C289.502 248.442 289.405 248.08 289.405 247.651C289.405 247.281 289.476 246.977 289.618 246.739C289.76 246.5 289.952 246.311 290.194 246.172C290.435 246.033 290.705 245.928 291.003 245.857C291.301 245.786 291.605 245.732 291.915 245.695C292.307 245.649 292.625 245.612 292.87 245.584C293.114 245.553 293.292 245.503 293.402 245.435C293.513 245.366 293.569 245.256 293.569 245.102V245.072C293.569 244.7 293.463 244.412 293.253 244.207C293.046 244.003 292.736 243.901 292.324 243.901C291.895 243.901 291.557 243.996 291.31 244.186C291.066 244.374 290.897 244.582 290.803 244.812L289.605 244.54C289.748 244.142 289.955 243.821 290.228 243.577C290.503 243.33 290.82 243.151 291.178 243.04C291.536 242.926 291.912 242.869 292.307 242.869C292.569 242.869 292.846 242.901 293.138 242.963C293.434 243.023 293.709 243.134 293.965 243.295C294.223 243.457 294.435 243.689 294.6 243.99C294.765 244.288 294.847 244.676 294.847 245.153V249.5H293.603V248.605H293.551C293.469 248.77 293.346 248.932 293.181 249.091C293.016 249.25 292.804 249.382 292.546 249.487C292.287 249.592 291.978 249.645 291.617 249.645ZM291.894 248.622C292.246 248.622 292.547 248.553 292.797 248.413C293.05 248.274 293.242 248.092 293.373 247.868C293.506 247.641 293.573 247.398 293.573 247.139V246.295C293.527 246.341 293.439 246.384 293.309 246.423C293.181 246.46 293.034 246.493 292.87 246.521C292.705 246.547 292.544 246.571 292.388 246.594C292.232 246.614 292.101 246.631 291.996 246.645C291.749 246.676 291.523 246.729 291.319 246.803C291.117 246.876 290.955 246.983 290.833 247.122C290.713 247.259 290.654 247.44 290.654 247.668C290.654 247.983 290.77 248.222 291.003 248.384C291.236 248.543 291.533 248.622 291.894 248.622ZM300.69 246.786V242.955H301.969V249.5H300.716V248.366H300.648C300.497 248.716 300.256 249.007 299.923 249.24C299.594 249.47 299.183 249.585 298.692 249.585C298.271 249.585 297.899 249.493 297.575 249.308C297.254 249.121 297.001 248.844 296.817 248.477C296.635 248.111 296.544 247.658 296.544 247.118V242.955H297.818V246.964C297.818 247.411 297.942 247.766 298.189 248.03C298.436 248.294 298.757 248.426 299.152 248.426C299.391 248.426 299.628 248.366 299.864 248.247C300.102 248.128 300.3 247.947 300.456 247.706C300.615 247.464 300.693 247.158 300.69 246.786ZM304.955 245.614V249.5H303.681V242.955H304.904V244.02H304.985C305.135 243.673 305.371 243.395 305.692 243.185C306.016 242.974 306.424 242.869 306.915 242.869C307.361 242.869 307.752 242.963 308.087 243.151C308.422 243.335 308.682 243.611 308.867 243.977C309.051 244.344 309.144 244.797 309.144 245.337V249.5H307.87V245.49C307.87 245.016 307.746 244.645 307.499 244.378C307.252 244.108 306.912 243.973 306.48 243.973C306.185 243.973 305.922 244.037 305.692 244.165C305.465 244.293 305.284 244.48 305.151 244.727C305.02 244.972 304.955 245.267 304.955 245.614ZM313.61 249.632C312.976 249.632 312.431 249.489 311.973 249.202C311.519 248.912 311.169 248.513 310.925 248.004C310.681 247.496 310.559 246.913 310.559 246.257C310.559 245.592 310.684 245.006 310.934 244.497C311.184 243.986 311.536 243.587 311.99 243.3C312.445 243.013 312.98 242.869 313.597 242.869C314.094 242.869 314.537 242.962 314.926 243.146C315.316 243.328 315.63 243.584 315.868 243.913C316.11 244.243 316.253 244.628 316.299 245.068H315.059C314.99 244.761 314.834 244.497 314.59 244.276C314.348 244.054 314.025 243.943 313.618 243.943C313.263 243.943 312.952 244.037 312.685 244.224C312.421 244.409 312.215 244.673 312.067 245.017C311.919 245.358 311.846 245.761 311.846 246.227C311.846 246.705 311.918 247.116 312.063 247.463C312.208 247.81 312.412 248.078 312.676 248.268C312.944 248.459 313.257 248.554 313.618 248.554C313.86 248.554 314.078 248.51 314.275 248.422C314.473 248.331 314.64 248.202 314.773 248.034C314.909 247.866 315.005 247.665 315.059 247.429H316.299C316.253 247.852 316.115 248.23 315.885 248.562C315.655 248.895 315.347 249.156 314.961 249.347C314.577 249.537 314.127 249.632 313.61 249.632ZM318.935 245.614V249.5H317.661V240.773H318.918V244.02H318.999C319.153 243.668 319.387 243.388 319.702 243.18C320.018 242.973 320.43 242.869 320.938 242.869C321.387 242.869 321.779 242.962 322.114 243.146C322.452 243.331 322.714 243.607 322.898 243.973C323.086 244.337 323.18 244.791 323.18 245.337V249.5H321.906V245.49C321.906 245.01 321.782 244.638 321.535 244.374C321.288 244.107 320.944 243.973 320.504 243.973C320.202 243.973 319.933 244.037 319.694 244.165C319.458 244.293 319.272 244.48 319.136 244.727C319.002 244.972 318.935 245.267 318.935 245.614Z" fill="#A1A1AA"/>
<g filter="url(#filter1_dd_2025_3916)">
<g filter="url(#filter2_dd_2025_3916)">
<rect x="48" y="300.9" width="61" height="24" rx="7.2" fill="#FB923C"/>
<rect x="48.6" y="301.5" width="59.8" height="22.8" rx="6.6" stroke="#FDBA74" stroke-width="1.2"/>
<path d="M61.9531 310.465C61.9077 310.062 61.7202 309.749 61.3906 309.528C61.0611 309.303 60.6463 309.191 60.1463 309.191C59.7884 309.191 59.4787 309.248 59.2173 309.362C58.956 309.472 58.7528 309.626 58.608 309.822C58.4659 310.015 58.3949 310.235 58.3949 310.482C58.3949 310.69 58.4432 310.869 58.5398 311.019C58.6392 311.17 58.7685 311.296 58.9276 311.399C59.0895 311.498 59.2628 311.582 59.4474 311.65C59.6321 311.715 59.8097 311.769 59.9801 311.812L60.8324 312.034C61.1108 312.102 61.3963 312.194 61.6889 312.311C61.9815 312.427 62.2528 312.58 62.5028 312.771C62.7528 312.961 62.9545 313.197 63.108 313.478C63.2642 313.759 63.3423 314.096 63.3423 314.488C63.3423 314.982 63.2145 315.421 62.9588 315.805C62.706 316.188 62.3381 316.491 61.8551 316.713C61.375 316.934 60.794 317.045 60.1122 317.045C59.4588 317.045 58.8935 316.941 58.4162 316.734C57.9389 316.526 57.5653 316.232 57.2955 315.852C57.0256 315.468 56.8764 315.014 56.848 314.488H58.169C58.1946 314.803 58.2969 315.066 58.4759 315.276C58.6577 315.484 58.8892 315.639 59.1705 315.741C59.4545 315.84 59.7656 315.89 60.1037 315.89C60.4759 315.89 60.8068 315.832 61.0966 315.715C61.3892 315.596 61.6193 315.431 61.7869 315.221C61.9545 315.008 62.0384 314.759 62.0384 314.475C62.0384 314.217 61.9645 314.005 61.8168 313.84C61.6719 313.676 61.4744 313.539 61.2244 313.431C60.9773 313.323 60.6974 313.228 60.3849 313.146L59.3537 312.865C58.6548 312.674 58.1009 312.394 57.6918 312.025C57.2855 311.656 57.0824 311.167 57.0824 310.559C57.0824 310.056 57.2188 309.617 57.4915 309.242C57.7642 308.867 58.1335 308.576 58.5994 308.369C59.0653 308.159 59.5909 308.053 60.1761 308.053C60.767 308.053 61.2884 308.157 61.7401 308.365C62.1946 308.572 62.5526 308.857 62.8139 309.221C63.0753 309.582 63.2116 309.997 63.223 310.465H61.9531ZM67.5707 317.032C66.957 317.032 66.4215 316.892 65.9641 316.61C65.5067 316.329 65.1516 315.936 64.8988 315.43C64.646 314.924 64.5195 314.333 64.5195 313.657C64.5195 312.978 64.646 312.384 64.8988 311.876C65.1516 311.367 65.5067 310.972 65.9641 310.691C66.4215 310.41 66.957 310.269 67.5707 310.269C68.1843 310.269 68.7198 310.41 69.1772 310.691C69.6346 310.972 69.9897 311.367 70.2425 311.876C70.4954 312.384 70.6218 312.978 70.6218 313.657C70.6218 314.333 70.4954 314.924 70.2425 315.43C69.9897 315.936 69.6346 316.329 69.1772 316.61C68.7198 316.892 68.1843 317.032 67.5707 317.032ZM67.5749 315.963C67.9727 315.963 68.3022 315.857 68.5636 315.647C68.8249 315.437 69.0181 315.157 69.1431 314.808C69.271 314.458 69.3349 314.073 69.3349 313.653C69.3349 313.235 69.271 312.852 69.1431 312.502C69.0181 312.15 68.8249 311.867 68.5636 311.654C68.3022 311.441 67.9727 311.335 67.5749 311.335C67.1744 311.335 66.842 311.441 66.5778 311.654C66.3164 311.867 66.1218 312.15 65.994 312.502C65.869 312.852 65.8065 313.235 65.8065 313.653C65.8065 314.073 65.869 314.458 65.994 314.808C66.1218 315.157 66.3164 315.437 66.5778 315.647C66.842 315.857 67.1744 315.963 67.5749 315.963ZM75.1591 310.355V311.377H71.4602V310.355H75.1591ZM72.4744 316.9V309.596C72.4744 309.187 72.5639 308.847 72.7429 308.578C72.9219 308.305 73.1591 308.102 73.4545 307.968C73.75 307.832 74.071 307.764 74.4176 307.764C74.6733 307.764 74.892 307.785 75.0739 307.828C75.2557 307.867 75.3906 307.904 75.4787 307.938L75.1804 308.97C75.1207 308.953 75.044 308.933 74.9503 308.91C74.8565 308.884 74.7429 308.872 74.6094 308.872C74.2997 308.872 74.0781 308.948 73.9446 309.102C73.8139 309.255 73.7486 309.477 73.7486 309.767V316.9H72.4744ZM76.4737 316.9V310.355H77.7479V316.9H76.4737ZM77.1172 309.345C76.8956 309.345 76.7053 309.271 76.5462 309.123C76.3899 308.972 76.3118 308.793 76.3118 308.586C76.3118 308.376 76.3899 308.197 76.5462 308.049C76.7053 307.899 76.8956 307.823 77.1172 307.823C77.3388 307.823 77.5277 307.899 77.6839 308.049C77.843 308.197 77.9226 308.376 77.9226 308.586C77.9226 308.793 77.843 308.972 77.6839 309.123C77.5277 309.271 77.3388 309.345 77.1172 309.345ZM81.3668 317.045C80.9521 317.045 80.5771 316.968 80.2418 316.815C79.9066 316.659 79.641 316.433 79.445 316.137C79.2518 315.842 79.1552 315.48 79.1552 315.051C79.1552 314.681 79.2262 314.377 79.3683 314.139C79.5103 313.9 79.7021 313.711 79.9435 313.572C80.185 313.433 80.4549 313.328 80.7532 313.257C81.0515 313.186 81.3555 313.132 81.6651 313.095C82.0572 313.049 82.3754 313.012 82.6197 312.984C82.864 312.953 83.0415 312.903 83.1523 312.835C83.2631 312.767 83.3185 312.656 83.3185 312.502V312.472C83.3185 312.1 83.2134 311.812 83.0032 311.607C82.7958 311.403 82.4862 311.301 82.0742 311.301C81.6452 311.301 81.3072 311.396 81.06 311.586C80.8157 311.774 80.6467 311.982 80.5529 312.213L79.3555 311.94C79.4975 311.542 79.7049 311.221 79.9776 310.977C80.2532 310.73 80.57 310.551 80.9279 310.44C81.2859 310.326 81.6623 310.269 82.0572 310.269C82.3185 310.269 82.5955 310.301 82.8881 310.363C83.1836 310.423 83.4592 310.534 83.7148 310.695C83.9734 310.857 84.185 311.089 84.3498 311.39C84.5146 311.688 84.5969 312.076 84.5969 312.553V316.9H83.3526V316.005H83.3015C83.2191 316.17 83.0955 316.332 82.9308 316.491C82.766 316.65 82.5543 316.782 82.2958 316.887C82.0373 316.992 81.7276 317.045 81.3668 317.045ZM81.6438 316.022C81.9961 316.022 82.2972 315.953 82.5472 315.813C82.8001 315.674 82.9918 315.492 83.1225 315.268C83.256 315.041 83.3228 314.798 83.3228 314.539V313.695C83.2773 313.741 83.1893 313.784 83.0586 313.823C82.9308 313.86 82.7844 313.893 82.6197 313.921C82.4549 313.947 82.2944 313.971 82.1381 313.994C81.9819 314.014 81.8512 314.031 81.7461 314.045C81.4989 314.076 81.2731 314.129 81.0685 314.203C80.8668 314.276 80.7049 314.383 80.5827 314.522C80.4634 314.659 80.4038 314.84 80.4038 315.068C80.4038 315.383 80.5202 315.622 80.7532 315.784C80.9862 315.943 81.283 316.022 81.6438 316.022ZM95.4783 310.93C95.396 310.671 95.2852 310.44 95.146 310.235C95.0096 310.028 94.8462 309.852 94.6559 309.707C94.4656 309.559 94.2482 309.447 94.0039 309.37C93.7624 309.293 93.4968 309.255 93.207 309.255C92.7156 309.255 92.2724 309.382 91.8775 309.634C91.4826 309.887 91.1701 310.258 90.94 310.747C90.7127 311.232 90.5991 311.828 90.5991 312.532C90.5991 313.24 90.7141 313.838 90.9442 314.326C91.1744 314.815 91.4897 315.186 91.8903 315.438C92.2908 315.691 92.7468 315.818 93.2582 315.818C93.7326 315.818 94.146 315.721 94.4982 315.528C94.8533 315.335 95.1275 315.062 95.3207 314.71C95.5167 314.355 95.6147 313.937 95.6147 313.457L95.9556 313.521H93.4585V312.434H96.8888V313.427C96.8888 314.16 96.7326 314.796 96.4201 315.336C96.1104 315.873 95.6815 316.288 95.1332 316.58C94.5877 316.873 93.9627 317.019 93.2582 317.019C92.4684 317.019 91.7752 316.838 91.1786 316.474C90.5849 316.11 90.1218 315.595 89.7894 314.927C89.457 314.257 89.2908 313.461 89.2908 312.541C89.2908 311.845 89.3874 311.22 89.5806 310.666C89.7738 310.112 90.0451 309.642 90.3945 309.255C90.7468 308.866 91.1602 308.569 91.6346 308.365C92.1119 308.157 92.6332 308.053 93.1985 308.053C93.6701 308.053 94.109 308.123 94.5153 308.262C94.9244 308.401 95.288 308.599 95.6062 308.855C95.9272 309.11 96.1928 309.414 96.4031 309.767C96.6133 310.116 96.7553 310.504 96.8292 310.93H95.4783ZM99.2976 316.981C99.0646 316.981 98.8643 316.899 98.6967 316.734C98.5291 316.566 98.4453 316.365 98.4453 316.129C98.4453 315.896 98.5291 315.697 98.6967 315.532C98.8643 315.365 99.0646 315.281 99.2976 315.281C99.5305 315.281 99.7308 315.365 99.8984 315.532C100.066 315.697 100.15 315.896 100.15 316.129C100.15 316.285 100.11 316.428 100.031 316.559C99.9538 316.687 99.8516 316.789 99.7237 316.866C99.5959 316.943 99.4538 316.981 99.2976 316.981Z" fill="#FAFAFA"/>
</g>
<path d="M116.6 281.846C116.6 280.843 115.464 280.31 114.699 280.87L114.552 280.997L101.497 294.052C100.741 294.808 101.277 296.1 102.345 296.1H108.502C109.059 296.1 109.595 296.294 110.022 296.644L110.199 296.803L114.552 301.156C115.307 301.912 116.6 301.376 116.6 300.308V281.846Z" fill="#FB923C" stroke="#FDBA74" stroke-width="1.2"/>
</g>
<g opacity="0.5">
<g opacity="0.7" filter="url(#filter3_f_2025_3916)">
<circle cx="180" cy="180" r="180" transform="matrix(-1 0 0 1 416 172)" fill="#FB923C" fill-opacity="0.6"/>
</g>
</g>
<defs>
<filter id="filter0_dd_2025_3916" x="198" y="438.042" width="101" height="84.8582" filterUnits="userSpaceOnUse" color-interpolation-filters="sRGB">
<feFlood flood-opacity="0" result="BackgroundImageFix"/>
<feColorMatrix in="SourceAlpha" type="matrix" values="0 0 0 0 0 0 0 0 0 0 0 0 0 0 0 0 0 0 127 0" result="hardAlpha"/>
<feMorphology radius="5" operator="erode" in="SourceAlpha" result="effect1_dropShadow_2025_3916"/>
<feOffset dy="20"/>
<feGaussianBlur stdDeviation="12.5"/>
<feComposite in2="hardAlpha" operator="out"/>
<feColorMatrix type="matrix" values="0 0 0 0 0 0 0 0 0 0 0 0 0 0 0 0 0 0 0.1 0"/>
<feBlend mode="normal" in2="BackgroundImageFix" result="effect1_dropShadow_2025_3916"/>
<feColorMatrix in="SourceAlpha" type="matrix" values="0 0 0 0 0 0 0 0 0 0 0 0 0 0 0 0 0 0 127 0" result="hardAlpha"/>
<feMorphology radius="6" operator="erode" in="SourceAlpha" result="effect2_dropShadow_2025_3916"/>
<feOffset dy="8"/>
<feGaussianBlur stdDeviation="5"/>
<feComposite in2="hardAlpha" operator="out"/>
<feColorMatrix type="matrix" values="0 0 0 0 0 0 0 0 0 0 0 0 0 0 0 0 0 0 0.1 0"/>
<feBlend mode="normal" in2="effect1_dropShadow_2025_3916" result="effect2_dropShadow_2025_3916"/>
<feBlend mode="normal" in="SourceGraphic" in2="effect2_dropShadow_2025_3916" result="shape"/>
</filter>
<filter id="filter1_dd_2025_3916" x="28" y="280.042" width="109.2" height="84.858" filterUnits="userSpaceOnUse" color-interpolation-filters="sRGB">
<feFlood flood-opacity="0" result="BackgroundImageFix"/>
<feColorMatrix in="SourceAlpha" type="matrix" values="0 0 0 0 0 0 0 0 0 0 0 0 0 0 0 0 0 0 127 0" result="hardAlpha"/>
<feMorphology radius="5" operator="erode" in="SourceAlpha" result="effect1_dropShadow_2025_3916"/>
<feOffset dy="20"/>
<feGaussianBlur stdDeviation="12.5"/>
<feComposite in2="hardAlpha" operator="out"/>
<feColorMatrix type="matrix" values="0 0 0 0 0 0 0 0 0 0 0 0 0 0 0 0 0 0 0.1 0"/>
<feBlend mode="normal" in2="BackgroundImageFix" result="effect1_dropShadow_2025_3916"/>
<feColorMatrix in="SourceAlpha" type="matrix" values="0 0 0 0 0 0 0 0 0 0 0 0 0 0 0 0 0 0 127 0" result="hardAlpha"/>
<feMorphology radius="6" operator="erode" in="SourceAlpha" result="effect2_dropShadow_2025_3916"/>
<feOffset dy="8"/>
<feGaussianBlur stdDeviation="5"/>
<feComposite in2="hardAlpha" operator="out"/>
<feColorMatrix type="matrix" values="0 0 0 0 0 0 0 0 0 0 0 0 0 0 0 0 0 0 0.1 0"/>
<feBlend mode="normal" in2="effect1_dropShadow_2025_3916" result="effect2_dropShadow_2025_3916"/>
<feBlend mode="normal" in="SourceGraphic" in2="effect2_dropShadow_2025_3916" result="shape"/>
</filter>
<filter id="filter2_dd_2025_3916" x="-16" y="236.9" width="189" height="152" filterUnits="userSpaceOnUse" color-interpolation-filters="sRGB">
<feFlood flood-opacity="0" result="BackgroundImageFix"/>
<feColorMatrix in="SourceAlpha" type="matrix" values="0 0 0 0 0 0 0 0 0 0 0 0 0 0 0 0 0 0 127 0" result="hardAlpha"/>
<feOffset/>
<feGaussianBlur stdDeviation="32"/>
<feColorMatrix type="matrix" values="0 0 0 0 0.984314 0 0 0 0 0.572549 0 0 0 0 0.235294 0 0 0 1 0"/>
<feBlend mode="normal" in2="BackgroundImageFix" result="effect1_dropShadow_2025_3916"/>
<feColorMatrix in="SourceAlpha" type="matrix" values="0 0 0 0 0 0 0 0 0 0 0 0 0 0 0 0 0 0 127 0" result="hardAlpha"/>
<feOffset/>
<feGaussianBlur stdDeviation="4"/>
<feColorMatrix type="matrix" values="0 0 0 0 0.992157 0 0 0 0 0.729412 0 0 0 0 0.454902 0 0 0 0.5 0"/>
<feBlend mode="normal" in2="effect1_dropShadow_2025_3916" result="effect2_dropShadow_2025_3916"/>
<feBlend mode="normal" in="SourceGraphic" in2="effect2_dropShadow_2025_3916" result="shape"/>
</filter>
<filter id="filter3_f_2025_3916" x="-344" y="-228" width="1160" height="1160" filterUnits="userSpaceOnUse" color-interpolation-filters="sRGB">
<feFlood flood-opacity="0" result="BackgroundImageFix"/>
<feBlend mode="normal" in="SourceGraphic" in2="BackgroundImageFix" result="shape"/>
<feGaussianBlur stdDeviation="200" result="effect1_foregroundBlur_2025_3916"/>
</filter>
<linearGradient id="paint0_linear_2025_3916" x1="296" y1="400.5" x2="296" y2="368.5" gradientUnits="userSpaceOnUse">
<stop stop-color="#FAFAFA" stop-opacity="0.05"/>
<stop offset="1" stop-color="#FAFAFA" stop-opacity="0.1"/>
</linearGradient>
<linearGradient id="paint1_linear_2025_3916" x1="296" y1="368.5" x2="296" y2="400.5" gradientUnits="userSpaceOnUse">
<stop stop-color="#FAFAFA" stop-opacity="0.2"/>
<stop offset="0.16" stop-color="#FAFAFA" stop-opacity="0.05"/>
<stop offset="0.86" stop-color="#FAFAFA" stop-opacity="0.05"/>
<stop offset="1" stop-color="white" stop-opacity="0"/>
</linearGradient>
<linearGradient id="paint2_linear_2025_3916" x1="395" y1="440.5" x2="395" y2="408.5" gradientUnits="userSpaceOnUse">
<stop stop-color="#FAFAFA" stop-opacity="0.05"/>
<stop offset="1" stop-color="#FAFAFA" stop-opacity="0.1"/>
</linearGradient>
<linearGradient id="paint3_linear_2025_3916" x1="395" y1="408.5" x2="395" y2="440.5" gradientUnits="userSpaceOnUse">
<stop stop-color="#FAFAFA" stop-opacity="0.2"/>
<stop offset="0.16" stop-color="#FAFAFA" stop-opacity="0.05"/>
<stop offset="0.86" stop-color="#FAFAFA" stop-opacity="0.05"/>
<stop offset="1" stop-color="white" stop-opacity="0"/>
</linearGradient>
<linearGradient id="paint4_linear_2025_3916" x1="192.5" y1="261.5" x2="192.5" y2="229.5" gradientUnits="userSpaceOnUse">
<stop stop-color="#FAFAFA" stop-opacity="0.05"/>
<stop offset="1" stop-color="#FAFAFA" stop-opacity="0.1"/>
</linearGradient>
<linearGradient id="paint5_linear_2025_3916" x1="192.5" y1="229.5" x2="192.5" y2="261.5" gradientUnits="userSpaceOnUse">
<stop stop-color="#FAFAFA" stop-opacity="0.2"/>
<stop offset="0.16" stop-color="#FAFAFA" stop-opacity="0.05"/>
<stop offset="0.86" stop-color="#FAFAFA" stop-opacity="0.05"/>
<stop offset="1" stop-color="white" stop-opacity="0"/>
</linearGradient>
</defs>
</svg>
