<svg width="560" height="496" viewBox="0 0 560 496" fill="none" xmlns="http://www.w3.org/2000/svg">
<g opacity="0.5">
<g opacity="0.7" filter="url(#filter0_f_2147_8680)">
<circle cx="180" cy="180" r="180" transform="matrix(-1 0 0 1 460 188)" fill="#059669" fill-opacity="0.6"/>
</g>
</g>
<path d="M108.863 383.514L108.871 383.652L109.217 384.751L107.73 395.163L106.208 368.889L107.37 357.99L108.863 383.514ZM228.822 206.079L227.942 206.822L211.259 210.758L211.736 210.569L232.82 202.398L245.497 199.633L228.822 206.079ZM314.796 198.6L313.295 198.716L308.395 197.261L327.336 200.84L328.267 201.161L314.796 198.6ZM248.015 535.803L248.795 536.13L280.132 541.289L265.78 542.766L235.785 537.84L248.015 535.803ZM230.994 537.055L198.365 523.201L209.405 519.337L209.499 519.403L246.118 534.995L232.387 537.28L230.994 537.055ZM138.714 471.257L144.299 461.769L173.154 493.267L164.56 499.903L163.709 499.299L140.742 474.24L138.714 471.257ZM122.479 425.104L143.534 460.917L138.079 470.173L119.239 438.092L119.073 437.561L122.479 425.104ZM121.447 423.293L121.483 423.409L121.729 423.824L118.467 435.64L108.199 403.203L108.055 400.693L109.989 387.167L121.447 423.293ZM171.906 236.493L169.525 238.247L172.202 235.999L171.906 236.493ZM259.185 196.664L260.809 196.548L284.418 201.714L262.432 210.256L262.086 210.547L232.798 206.916L259.185 196.664ZM411.066 260.832L395.379 243.849L398.143 238.072L418.469 260.024L411.066 260.832ZM444.77 314.173L430.151 301.767L430.122 301.44L423.599 282.275L435.577 287.688L435.844 288.132L441.523 304.7L444.77 314.173ZM451.632 335.223L453.912 360.296L450.246 346.493L450.441 345.482L450.47 345.329L448.745 326.302L451.632 335.223ZM449.618 397.659L445.13 372.76L445.448 372.178L449.777 349.011L454.503 366.837L454.778 369.857L449.618 397.659ZM357.259 522.561L337.07 531.365L348.702 524.409L349.777 524.299L349.943 524.278L366.834 516.922L357.259 522.561ZM291.879 540.067L310.445 528.309L311 528.403L346.082 524.685L329.082 534.85L325.301 536.494L291.879 540.067ZM121.166 324.265L123.439 362.224L123.446 362.363L123.547 362.661L110.927 381.069L108.798 344.747L109.094 343.459L121.166 324.265ZM127.934 291.028L121.043 321.471L121.007 321.624L121.058 322.424L109.83 340.229L116.772 309.691L127.934 291.028ZM188.913 253.265L188.826 253.418L188.776 253.629L157.734 264.586L174.308 236.77L175.023 236.173L203.856 228.017L188.913 253.265ZM242.135 228.068L229.746 249.219L191.575 253.098L206.649 227.617L206.836 227.464L242.135 228.068ZM315.293 218.631L314.889 218.791L289.707 202.681L314.673 200.833L315.257 200.95L333.051 217.277L315.293 218.631ZM374.808 229.428L355.982 221.104L355.426 220.995L345.88 207.367L371.597 218.718L371.9 218.943L374.808 229.428ZM394.491 243.173L376.474 230.163L376.113 230.003L373.328 219.969L397.313 237.25L394.491 243.173ZM434.134 429.106L412.776 448.584L413.894 412.328L413.974 412.299L431.746 396.204L434.365 428.677L434.134 429.106ZM401.173 482.855L370.507 496.148L383.004 464.323L411.058 452.317L401.628 482.44L401.173 482.855ZM136.622 403.698L136.65 403.778L123.114 421.255L111.05 383.245L111.028 382.859L123.958 363.971L136.622 403.698ZM146.579 301.454L146.55 301.614L146.565 301.876L123.677 319.79L131.484 285.294L132.04 284.377L154.127 267.759L146.579 301.454ZM181.683 285.862L181.654 285.985L149.061 300.472L156.702 266.325L156.847 266.078L188.494 254.902L181.683 285.862ZM448.247 345.22L443.723 369.435L428.21 341.335L428.231 341.298L431.601 323.792L448.197 344.704L448.247 345.22ZM419.371 357.444L419.392 357.422L427.582 342.477L443.399 371.138L443.348 371.421L431.998 392.318L419.371 357.444ZM431.277 393.65L413.606 409.643L405.871 369.544L418.483 358.237L431.298 393.613L431.277 393.65ZM411.564 449.698L383.618 461.703L389.693 422.609L412.776 412.808L411.643 449.618L411.564 449.698ZM368.97 496.81L332.914 500.543L349.055 467.75L381.763 464.468L369.107 496.752L368.97 496.81ZM349.38 522.109L312.761 525.98L331.521 502.879L331.666 502.908L367.549 499.19L350.022 521.826L349.38 522.109ZM191.597 477.572L227.891 503.526L210.559 517.445L175.687 492.554L191.597 477.572ZM160.318 443.622L190.767 476.838L174.842 491.834L145.605 459.95L160.318 443.622ZM137.242 404.804L159.603 442.771L144.963 459.011L123.525 422.529L137.242 404.804ZM149.018 341.182L125.546 360.602L123.222 321.813L123.294 321.5L146.644 303.193L149.018 341.182ZM274.259 254.327L270.506 272.212L226.318 275.515L231.744 250.325L274.259 254.327ZM274.569 253.25L232.271 249.27L244.545 228.33L283.191 238.349L274.569 253.25ZM375.161 231.982L372.434 252.937L362.671 248.615L362.541 248.594L356.502 223.753L375.161 231.982ZM391.382 269.258L383.567 260.781L394.189 245.814L408.749 261.545L391.382 269.258ZM397.803 279.764L392.031 270.182L409.471 262.411L420.352 280.375L397.803 279.764ZM401.577 290.839L398.229 280.885L420.994 281.46L427.474 300.414L401.577 290.839ZM429.725 321.886L426.456 339.123L400.56 311.677L402.299 302.917L429.725 321.849V321.886ZM389.816 420.149L388.625 376.762L404.853 370.024L412.646 410.458L389.816 420.149ZM382.449 462.169L349.928 465.429L361.798 425.33L388.56 422.754L382.449 462.169ZM331.644 500.652L292.954 494.155L312.948 461.587L347.915 467.582L331.644 500.652ZM149.371 342.317L161.883 381.281L138.397 402.003L125.632 361.962L149.371 342.317ZM184.28 322.599L195.659 357.728L163.745 379.862L151.262 340.993L184.28 322.599ZM226.261 306.104L235.612 334.779L197.586 356.527L186.286 321.653L226.261 306.104ZM331.99 250.98L299.852 227.049L315.618 220.828L340.021 247.815L331.99 250.98ZM418.144 355.116L395.935 320.176L400.055 312.754L426.197 340.432L418.144 355.116ZM362.289 423.053L368.783 378.741L387.543 377.017L388.734 420.506L362.289 423.053ZM348.774 465.472L314.016 459.55L332.135 420.229L360.694 425.214L348.774 465.472ZM291.821 493.907L253.398 477.478L277.166 446.292L311.88 461.23L291.821 493.907ZM251.941 479.239L290.45 495.734L270.146 519.359L230.59 502.5L251.941 479.239ZM162.41 382.285L184.302 419.327L161.205 441.148L138.801 403.102L162.41 382.285ZM196.179 358.71L215.95 392.093L185.976 417.828L164.163 380.909L196.179 358.71ZM236.11 335.761L252.302 362.996L217.667 390.667L198.026 357.546L236.11 335.761ZM272.195 294.055L278.804 314.144L237.596 333.746L228.324 305.442L272.195 294.055ZM319.551 266.522L317.74 275.399L272.75 272.226L276.423 254.727L319.551 266.522ZM324.133 258.067L319.911 265.467L276.856 253.701L285.298 239.113L324.133 258.067ZM324.775 257.15L286.114 238.291L298.676 227.551L331.096 251.693L324.775 257.15ZM363.609 282.522L362.815 251.104L371.979 255.135L363.609 282.522ZM367.375 287.07L399.449 291.45L400.235 300.552L367.375 287.07ZM388.871 326.528L395.148 320.969L417.502 356.149L405.156 367.216L388.871 326.528ZM361.177 423.053L332.957 418.149L347.684 375.089L367.686 378.661L361.177 423.053ZM312.934 459.273L278.458 444.466L302.753 407.649L331.074 419.902L312.934 459.273ZM252.403 476.961L217.09 451.713L244.285 422.863L276.207 445.74L252.403 476.961ZM215.553 453.307L250.974 478.664L229.558 501.998L193.184 476.015L215.553 453.307ZM184.995 420.186L214.723 452.579L192.347 475.295L161.847 442.058L184.995 420.186ZM216.635 392.959L243.448 422.143L216.253 450.986L186.625 418.723L216.635 392.959ZM252.987 363.869L274.893 387.691L244.949 420.513L218.323 391.562L252.987 363.869ZM279.288 315.134L290.674 334.211L254.062 361.642L238.051 334.757L279.288 315.134ZM359.02 282.202L326.745 258.373L332.755 253.178L359.02 282.202ZM360.016 281.649L333.772 252.654L341.378 249.619L360.016 281.649ZM361.235 281.554L342.561 249.459L351.263 248.768L361.235 281.554ZM364.525 283.271L372.939 255.746L381.395 261.836L364.525 283.271ZM365.333 284.043L382.218 262.578L389.361 270.298L365.333 284.043ZM366.105 284.872L390.061 271.179L395.386 279.983L366.105 284.872ZM395.949 281.016L399.102 290.293L366.834 285.876L395.949 281.016ZM367.541 288.336L400.286 301.775L398.669 310.127L367.541 288.336ZM379.851 330.333L387.904 327.059L404.247 367.878L388.365 374.528L379.851 330.333ZM331.904 417.85L303.915 405.765L326.788 366.153L346.623 374.79L331.904 417.85ZM291.352 335.085L306.721 351.783L276.373 386.039L254.719 362.523L291.352 335.085ZM318.678 287.368L321.99 297.373L280.839 313.271L274.345 293.64L318.678 287.368ZM367.253 289.485L398.366 311.255L394.455 318.306L367.253 289.485ZM369.461 331.439L378.783 330.624L387.305 374.812L368.948 376.493L369.461 331.439ZM358.414 329.569L368.371 331.396L367.859 376.442L348.283 372.971L358.414 329.569ZM322.466 298.377L328.159 307.908L292.463 332.916L281.315 314.275L322.466 298.377ZM324.075 296.667L320.914 287.208L358.984 286.553L324.075 296.667ZM386.901 325.08L379.252 328.23L365.499 290.751L386.901 325.08ZM366.531 290.322L393.799 319.208L387.832 324.498L366.531 290.322ZM328.83 308.781L336.522 317.142L308.179 350.11L293.134 333.797L328.83 308.781ZM329.992 306.671L324.587 297.671L359.669 287.513L329.992 306.671ZM369.338 329.22L364.323 290.751L378.163 328.449L369.338 329.22ZM337.958 315.439L330.67 307.552L360.42 288.343L337.958 315.439ZM363.169 290.388L368.22 329.111L358.796 327.416L363.169 290.388ZM348.37 322.955L362.13 289.798L357.728 327.044L348.37 322.955ZM347.417 322.38L338.78 316.174L361.228 289.1L347.417 322.38ZM326.874 363.665L309.009 350.837L337.359 317.855L346.486 324.432L326.874 363.665ZM347.237 372.644L327.827 364.218L347.461 324.949L357.353 329.293L347.237 372.644ZM302.955 405.226L277.202 386.767L307.558 352.504L325.814 365.63L302.955 405.226ZM358.464 285.454L320.633 286.102L319.904 276.854L358.464 285.454ZM322.004 266.245L326.023 259.217L358.414 283.126L322.004 266.245ZM358.24 284.268L319.919 275.719L321.643 267.3L358.24 284.268ZM277.484 443.935L245.786 421.248L275.73 388.411L301.786 407.111L277.484 443.935ZM362.49 281.896L352.468 248.95L361.704 250.667L362.49 281.896ZM317.667 276.505L318.439 286.277L274.107 292.556L272.678 273.325L317.667 276.505ZM376.178 232.681L393.373 245.065L382.709 260.075L373.48 253.41L376.178 232.681ZM270.47 273.318L271.935 292.985L228.129 304.35L226.188 276.628L270.47 273.318ZM311.058 526.162L271.387 519.585L291.547 496.141L330.273 502.668L311.246 526.14L311.058 526.162ZM427.943 301.775L429.602 320.445L402.537 301.731L402.544 301.702L401.714 292.068L427.921 301.724L427.943 301.775ZM355.239 223.193L361.358 248.368L351.552 246.52L351.501 246.527L336.349 219.642L355.217 223.185L355.239 223.193ZM334.934 219.373L350.289 246.622L341.248 247.335L341.125 247.386L317.011 220.719L334.869 219.365L334.934 219.373ZM224.009 276.97L225.972 305.027L186.128 320.532L183.884 286.407L224.009 276.97ZM181.726 287.157L183.985 321.507L151.139 339.807L148.765 301.818L181.726 287.157ZM249.401 533.984L211.663 517.94L228.865 504.152L268.255 520.96L249.617 534.02L249.401 533.984ZM287.867 202.82L313.634 219.278L297.63 225.543L297.529 225.63L265.174 211.558L287.47 202.849L287.867 202.82ZM263.709 212.133L296.605 226.416L283.79 237.366L245.548 227.442L263.565 212.191L263.709 212.133ZM229.486 250.354L223.995 275.835L184.078 285.236L190.89 254.283L229.486 250.354ZM251.176 534.275L269.453 521.469L269.496 521.484L308.807 528.032L289.39 540.336L288.545 540.423L251.176 534.275ZM382.543 507.659L352.064 520.938L369.071 499.03L369.36 499.001L399.413 486.027L384.556 505.818L382.543 507.659ZM403.244 480.956L412.393 451.75L412.769 451.589L433.766 432.431L427.156 458.16L426.226 459.892L403.244 480.956ZM435.324 426.894L432.777 395.272L433.023 395.047L444.293 374.31L449.048 400.715L448.832 401.872L435.324 426.894ZM445.679 316.829L448.017 342.703L431.875 322.366L431.947 322.002L430.288 303.339L445.469 316.218L445.679 316.829ZM230.619 207.767L260.931 211.522L243.015 226.693L242.871 226.816L242.777 226.969L208.135 226.372L229.955 208.022L230.619 207.767ZM154.559 250.769L156.183 249.416L170.455 238.931L154.632 265.489L154.495 266.093L133.54 281.86L149.682 254.858L154.559 250.769ZM196.576 522.444L188.473 516.965L165.498 500.572L173.977 494.024L208.301 518.551L196.85 522.561L196.576 522.444ZM408.418 483.91L392.262 498.739L388.993 501.736L401.455 485.147L402.378 484.747L419.32 469.219L408.418 483.91ZM442.554 429.572L435.332 442.982L429.328 454.129L435.245 431.078L435.887 430.496L447.028 409.854L442.554 429.572ZM419.428 261.057L434.56 286.014L423.108 280.834L423.022 280.572L411.722 261.872L419.407 261.043L419.428 261.057ZM343.355 206.254L343.932 206.509L353.875 220.704L334.992 217.132L334.53 217.168L317.307 201.335L343.355 206.254ZM297.579 195.216L310.17 198.949L287.146 200.651L286.287 200.986L264.698 196.264L292.37 194.234L297.579 195.216ZM200.263 215.022L203.77 213.661L226.059 208.408L204.953 226.161L204.672 226.634L177.101 234.434L200.263 215.022ZM195.443 524.35L230.258 539.15L265.715 545L288.48 542.664L288.618 542.65H288.625L325.871 538.67L358.19 524.569C358.197 524.569 358.197 524.569 358.197 524.561L383.647 509.602L383.755 509.551L409.976 485.482L427.921 461.339L427.979 461.281L444.56 430.496C444.647 430.336 444.676 430.154 444.683 429.979L450.924 402.65L450.932 402.621L450.968 402.461V402.454L456.971 370.119L457 369.966L453.811 334.903C453.796 334.743 453.746 334.59 453.674 334.459L447.8 316.225L437.886 287.295L421.247 259.806L399.059 235.809L372.78 216.848L344.12 204.166H344.105L344.033 204.129L327.957 198.716L327.863 198.694C327.848 198.694 327.834 198.68 327.812 198.68L292.492 192L258.861 194.467L232.271 200.244L232.17 200.28C232.148 200.288 232.127 200.287 232.105 200.295L199.577 212.912L199.303 213.013V213.021L199.137 213.086L198.603 213.53L175.189 230.614C175.182 230.614 175.182 230.614 175.182 230.622L163.139 240.706L148.022 253.367L147.993 253.389L147.849 253.629L132.48 279.124L114.802 308.694L114.708 308.847L106.619 344.405L106.583 344.558L106.59 344.667L104 368.831L106.013 403.473L106.02 403.611L117.183 438.885L136.845 472.428L139.768 476.736L161.357 500.31L187.224 518.792L195.443 524.35Z" fill="url(#paint0_linear_2147_8680)"/>
<g filter="url(#filter1_d_2147_8680)">
<ellipse cx="280" cy="368" rx="118.704" ry="243.335" transform="rotate(-45 280 368)" stroke="url(#paint1_linear_2147_8680)" stroke-width="2" shape-rendering="crispEdges"/>
</g>
<g filter="url(#filter2_d_2147_8680)">
<ellipse cx="287.941" cy="403.099" rx="86.5749" ry="216.161" transform="rotate(-105 287.941 403.099)" stroke="url(#paint2_linear_2147_8680)" stroke-width="2" shape-rendering="crispEdges"/>
</g>
<defs>
<filter id="filter0_f_2147_8680" x="-300" y="-212" width="1160" height="1160" filterUnits="userSpaceOnUse" color-interpolation-filters="sRGB">
<feFlood flood-opacity="0" result="BackgroundImageFix"/>
<feBlend mode="normal" in="SourceGraphic" in2="BackgroundImageFix" result="shape"/>
<feGaussianBlur stdDeviation="200" result="effect1_foregroundBlur_2147_8680"/>
</filter>
<filter id="filter1_d_2147_8680" x="79.5127" y="167.513" width="400.975" height="400.975" filterUnits="userSpaceOnUse" color-interpolation-filters="sRGB">
<feFlood flood-opacity="0" result="BackgroundImageFix"/>
<feColorMatrix in="SourceAlpha" type="matrix" values="0 0 0 0 0 0 0 0 0 0 0 0 0 0 0 0 0 0 127 0" result="hardAlpha"/>
<feOffset/>
<feGaussianBlur stdDeviation="4"/>
<feComposite in2="hardAlpha" operator="out"/>
<feColorMatrix type="matrix" values="0 0 0 0 0.831373 0 0 0 0 0.831373 0 0 0 0 0.847059 0 0 0 0.1 0"/>
<feBlend mode="normal" in2="BackgroundImageFix" result="effect1_dropShadow_2147_8680"/>
<feBlend mode="normal" in="SourceGraphic" in2="effect1_dropShadow_2147_8680" result="shape"/>
</filter>
<filter id="filter2_d_2147_8680" x="68.9287" y="293.474" width="438.025" height="219.249" filterUnits="userSpaceOnUse" color-interpolation-filters="sRGB">
<feFlood flood-opacity="0" result="BackgroundImageFix"/>
<feColorMatrix in="SourceAlpha" type="matrix" values="0 0 0 0 0 0 0 0 0 0 0 0 0 0 0 0 0 0 127 0" result="hardAlpha"/>
<feOffset/>
<feGaussianBlur stdDeviation="4"/>
<feComposite in2="hardAlpha" operator="out"/>
<feColorMatrix type="matrix" values="0 0 0 0 0.831373 0 0 0 0 0.831373 0 0 0 0 0.847059 0 0 0 0.1 0"/>
<feBlend mode="normal" in2="BackgroundImageFix" result="effect1_dropShadow_2147_8680"/>
<feBlend mode="normal" in="SourceGraphic" in2="effect1_dropShadow_2147_8680" result="shape"/>
</filter>
<linearGradient id="paint0_linear_2147_8680" x1="280.5" y1="192" x2="280.5" y2="545" gradientUnits="userSpaceOnUse">
<stop stop-color="#6EE7B7" stop-opacity="0.8"/>
<stop offset="1" stop-color="#059669" stop-opacity="0"/>
</linearGradient>
<linearGradient id="paint1_linear_2147_8680" x1="345.407" y1="186.627" x2="211.057" y2="248.145" gradientUnits="userSpaceOnUse">
<stop stop-color="#FAFAFA"/>
<stop offset="1" stop-color="#6EE7B7" stop-opacity="0"/>
</linearGradient>
<linearGradient id="paint2_linear_2147_8680" x1="369.488" y1="311.648" x2="233.085" y2="299.891" gradientUnits="userSpaceOnUse">
<stop stop-color="#FAFAFA" stop-opacity="0.7"/>
<stop offset="0.395" stop-color="#6EE7B7" stop-opacity="0.1"/>
<stop offset="1" stop-color="#6EE7B7" stop-opacity="0"/>
</linearGradient>
</defs>
</svg>
