<svg width="10" height="16" viewBox="0 0 10 16" fill="none" xmlns="http://www.w3.org/2000/svg">
<path d="M4.78409 15.018V0.472567H5.71591V15.018H4.78409ZM7.47159 5.12598C7.41856 4.62976 7.19508 4.2434 6.80114 3.96689C6.41099 3.69037 5.90341 3.55211 5.27841 3.55211C4.83902 3.55211 4.46212 3.6184 4.14773 3.75098C3.83333 3.88355 3.5928 4.06348 3.42614 4.29075C3.25947 4.51802 3.17424 4.77749 3.17045 5.06916C3.17045 5.31158 3.22538 5.52181 3.33523 5.69984C3.44886 5.87787 3.60227 6.02939 3.79545 6.15439C3.98864 6.2756 4.20265 6.37787 4.4375 6.4612C4.67235 6.54454 4.90909 6.61461 5.14773 6.67143L6.23864 6.94416C6.67803 7.04643 7.10038 7.18469 7.50568 7.35893C7.91477 7.53317 8.2803 7.75287 8.60227 8.01802C8.92803 8.28317 9.18561 8.60325 9.375 8.97825C9.56439 9.35325 9.65909 9.79264 9.65909 10.2964C9.65909 10.9782 9.48485 11.5786 9.13636 12.0976C8.78788 12.6127 8.28409 13.0161 7.625 13.3078C6.9697 13.5957 6.17614 13.7396 5.24432 13.7396C4.33902 13.7396 3.55303 13.5995 2.88636 13.3192C2.22348 13.0389 1.70455 12.6298 1.32955 12.0919C0.958333 11.554 0.757576 10.8987 0.727273 10.126H2.80114C2.83144 10.5313 2.95644 10.8684 3.17614 11.1373C3.39583 11.4063 3.68182 11.607 4.03409 11.7396C4.39015 11.8722 4.78788 11.9385 5.22727 11.9385C5.68561 11.9385 6.08712 11.8703 6.43182 11.7339C6.7803 11.5938 7.05303 11.4006 7.25 11.1544C7.44697 10.9044 7.54735 10.6127 7.55114 10.2794C7.54735 9.97636 7.45833 9.72636 7.28409 9.52939C7.10985 9.32863 6.86553 9.16196 6.55114 9.02939C6.24053 8.89302 5.87689 8.77181 5.46023 8.66575L4.13636 8.32484C3.17803 8.07863 2.42045 7.70552 1.86364 7.20552C1.31061 6.70173 1.03409 6.03317 1.03409 5.19984C1.03409 4.51423 1.2197 3.91385 1.59091 3.3987C1.96591 2.88355 2.47538 2.48393 3.11932 2.19984C3.76326 1.91196 4.49242 1.76802 5.30682 1.76802C6.13258 1.76802 6.85606 1.91196 7.47727 2.19984C8.10227 2.48393 8.5928 2.87976 8.94886 3.38734C9.30492 3.89113 9.48864 4.47067 9.5 5.12598H7.47159Z" fill="#A1A1AA"/>
</svg>
