<svg width="25" height="24" viewBox="0 0 25 24" fill="none" xmlns="http://www.w3.org/2000/svg">
<path d="M12.4997 5C10.4321 5 8.91053 5.82843 7.93594 7.48502C7.65487 7.96278 8.44335 8.41626 8.95604 8.20554C9.54899 7.96182 10.1802 7.93517 10.8497 8.12585C11.6873 8.36282 12.2845 9.0526 12.9469 9.81601C14.0249 11.0599 15.2735 12.5 18.0002 12.5C20.0669 12.5 21.5877 11.6726 22.5622 10.0181C22.8436 9.54035 22.054 9.08597 21.5409 9.29611C20.9488 9.53864 20.3185 9.56489 19.6501 9.37488C18.8138 9.13791 18.2154 8.4474 17.5529 7.68326C16.4749 6.44006 15.2263 5 12.4997 5ZM6.99984 12.5C4.93307 12.5 3.41232 13.3274 2.4378 14.9819C2.15642 15.4597 2.94604 15.914 3.45911 15.7039C4.05123 15.4614 4.68151 15.4351 5.34989 15.6251C6.18617 15.8621 6.78463 16.5526 7.44706 17.3167C8.52506 18.5599 9.77367 20 12.4997 20C14.5676 20 16.0889 19.172 17.0634 17.5163C17.3446 17.0386 16.5556 16.5847 16.0427 16.7952C15.45 17.0386 14.8192 17.0651 14.1503 16.8749C13.3133 16.6372 12.7155 15.9474 12.0531 15.1833C10.9745 13.9401 9.72714 12.5 6.99984 12.5Z" fill="#FAFAFA"/>
</svg>
