<svg width="16" height="16" viewBox="0 0 16 16" fill="none" xmlns="http://www.w3.org/2000/svg">
<g clip-path="url(#clip0_2070_7737)">
<path d="M9.00004 4.66659C9.18414 4.66659 9.33337 4.51735 9.33337 4.33325C9.33337 4.14916 9.18414 3.99992 9.00004 3.99992C8.81595 3.99992 8.66671 4.14916 8.66671 4.33325C8.66671 4.51735 8.81595 4.66659 9.00004 4.66659Z" stroke="#A1A1AA" stroke-linecap="round" stroke-linejoin="round"/>
<path d="M11.6667 7.33325C11.8508 7.33325 12 7.18401 12 6.99992C12 6.81582 11.8508 6.66659 11.6667 6.66659C11.4826 6.66659 11.3334 6.81582 11.3334 6.99992C11.3334 7.18401 11.4826 7.33325 11.6667 7.33325Z" stroke="#A1A1AA" stroke-linecap="round" stroke-linejoin="round"/>
<path d="M5.66671 5.33325C5.8508 5.33325 6.00004 5.18401 6.00004 4.99992C6.00004 4.81582 5.8508 4.66659 5.66671 4.66659C5.48261 4.66659 5.33337 4.81582 5.33337 4.99992C5.33337 5.18401 5.48261 5.33325 5.66671 5.33325Z" stroke="#A1A1AA" stroke-linecap="round" stroke-linejoin="round"/>
<path d="M4.33337 8.66659C4.51747 8.66659 4.66671 8.51735 4.66671 8.33325C4.66671 8.14916 4.51747 7.99992 4.33337 7.99992C4.14928 7.99992 4.00004 8.14916 4.00004 8.33325C4.00004 8.51735 4.14928 8.66659 4.33337 8.66659Z" stroke="#A1A1AA" stroke-linecap="round" stroke-linejoin="round"/>
<path d="M8.00004 1.33325C4.33337 1.33325 1.33337 4.33325 1.33337 7.99992C1.33337 11.6666 4.33337 14.6666 8.00004 14.6666C8.61737 14.6666 9.09871 14.1693 9.09871 13.5413C9.09871 13.2499 8.97871 12.9846 8.80737 12.7913C8.61404 12.5986 8.51537 12.3566 8.51537 12.0413C8.51285 11.8945 8.53988 11.7488 8.59487 11.6127C8.64986 11.4767 8.73168 11.3531 8.83544 11.2493C8.93921 11.1456 9.0628 11.0637 9.19886 11.0087C9.33491 10.9538 9.48065 10.9267 9.62737 10.9293H10.958C12.992 10.9293 14.6614 9.26059 14.6614 7.22659C14.6434 4.00792 11.6407 1.33325 8.00004 1.33325Z" stroke="#A1A1AA" stroke-linecap="round" stroke-linejoin="round"/>
</g>
<defs>
<clipPath id="clip0_2070_7737">
<rect width="16" height="16" fill="white"/>
</clipPath>
</defs>
</svg>
