<svg width="20" height="20" viewBox="0 0 20 20" fill="none" xmlns="http://www.w3.org/2000/svg">
<path d="M10 3.99991H5.33333C4.97971 3.99991 4.64057 4.14038 4.39052 4.39043C4.14048 4.64048 4 4.97962 4 5.33324V14.6666C4 15.0202 4.14048 15.3593 4.39052 15.6094C4.64057 15.8594 4.97971 15.9999 5.33333 15.9999H14.6667C15.0203 15.9999 15.3594 15.8594 15.6095 15.6094C15.8595 15.3593 16 15.0202 16 14.6666V9.99991M14.25 3.74991C14.5152 3.48469 14.8749 3.33569 15.25 3.33569C15.6251 3.33569 15.9848 3.48469 16.25 3.74991C16.5152 4.01512 16.6642 4.37483 16.6642 4.74991C16.6642 5.12498 16.5152 5.48469 16.25 5.74991L10.2413 11.7592C10.083 11.9174 9.88747 12.0332 9.67267 12.0959L7.75733 12.6559C7.69997 12.6726 7.63916 12.6736 7.58127 12.6588C7.52339 12.644 7.47055 12.6139 7.4283 12.5716C7.38604 12.5294 7.35593 12.4765 7.3411 12.4186C7.32627 12.3607 7.32727 12.2999 7.344 12.2426L7.904 10.3272C7.96702 10.1126 8.08302 9.91728 8.24133 9.75924L14.25 3.74991Z" stroke="#A1A1AA" stroke-linecap="round" stroke-linejoin="round"/>
</svg>
