<svg width="10" height="15" viewBox="0 0 10 15" fill="none" xmlns="http://www.w3.org/2000/svg">
<path d="M4.78409 14.8525V0.307039H5.71591V14.8525H4.78409ZM7.47159 4.96045C7.41856 4.46424 7.19508 4.07787 6.80114 3.80136C6.41099 3.52484 5.90341 3.38659 5.27841 3.38659C4.83902 3.38659 4.46212 3.45287 4.14773 3.58545C3.83333 3.71802 3.5928 3.89795 3.42614 4.12522C3.25947 4.35249 3.17424 4.61196 3.17045 4.90363C3.17045 5.14606 3.22538 5.35628 3.33523 5.53431C3.44886 5.71234 3.60227 5.86386 3.79545 5.98886C3.98864 6.11007 4.20265 6.21234 4.4375 6.29568C4.67235 6.37901 4.90909 6.44909 5.14773 6.5059L6.23864 6.77863C6.67803 6.8809 7.10038 7.01916 7.50568 7.1934C7.91477 7.36765 8.2803 7.58734 8.60227 7.85249C8.92803 8.11765 9.18561 8.43772 9.375 8.81272C9.56439 9.18772 9.65909 9.62712 9.65909 10.1309C9.65909 10.8127 9.48485 11.4131 9.13636 11.932C8.78788 12.4472 8.28409 12.8506 7.625 13.1423C6.9697 13.4301 6.17614 13.5741 5.24432 13.5741C4.33902 13.5741 3.55303 13.4339 2.88636 13.1536C2.22348 12.8733 1.70455 12.4642 1.32955 11.9264C0.958333 11.3885 0.757576 10.7332 0.727273 9.96045H2.80114C2.83144 10.3658 2.95644 10.7029 3.17614 10.9718C3.39583 11.2408 3.68182 11.4415 4.03409 11.5741C4.39015 11.7067 4.78788 11.7729 5.22727 11.7729C5.68561 11.7729 6.08712 11.7048 6.43182 11.5684C6.7803 11.4283 7.05303 11.2351 7.25 10.9889C7.44697 10.7389 7.54735 10.4472 7.55114 10.1139C7.54735 9.81083 7.45833 9.56083 7.28409 9.36386C7.10985 9.1631 6.86553 8.99643 6.55114 8.86386C6.24053 8.72749 5.87689 8.60628 5.46023 8.50022L4.13636 8.15931C3.17803 7.9131 2.42045 7.53999 1.86364 7.03999C1.31061 6.53621 1.03409 5.86765 1.03409 5.03431C1.03409 4.34871 1.2197 3.74833 1.59091 3.23318C1.96591 2.71802 2.47538 2.3184 3.11932 2.03431C3.76326 1.74643 4.49242 1.60249 5.30682 1.60249C6.13258 1.60249 6.85606 1.74643 7.47727 2.03431C8.10227 2.3184 8.5928 2.71424 8.94886 3.22181C9.30492 3.7256 9.48864 4.30515 9.5 4.96045H7.47159Z" fill="#71717A"/>
</svg>
