<svg width="25" height="24" viewBox="0 0 25 24" fill="none" xmlns="http://www.w3.org/2000/svg">
<path d="M12.5 2.00021V16M12.5 16V19.5C12.5 21.4331 10.933 23 9 23C7.067 23 5.5 21.4331 5.5 19.5C5.5 17.567 7.067 16 9 16M12.5 16H9M9 16C7.067 16 5.5 14.433 5.5 12.5C5.5 10.567 7.067 9 9 9M9 9H12.5M9 9H16M9 9C7.067 9 5.5 7.433 5.5 5.5C5.5 3.567 7.067 2 9 2H16C17.933 2 19.5 3.567 19.5 5.5C19.5 7.433 17.933 9 16 9M16 9C17.933 9 19.5 10.567 19.5 12.5C19.5 14.433 17.933 16 16 16C14.067 16 12.5 14.433 12.5 12.5C12.5 10.567 14.067 9 16 9Z" stroke="#09090B" stroke-width="1.5" stroke-linejoin="round"/>
</svg>
