<svg width="20" height="20" viewBox="0 0 20 20" fill="none" xmlns="http://www.w3.org/2000/svg">
<path d="M8.66667 16V7.33333C8.66667 7.15652 8.59643 6.98695 8.4714 6.86193C8.34638 6.7369 8.17681 6.66667 8 6.66667H4.66667C4.48986 6.66667 4.32029 6.7369 4.19526 6.86193C4.07024 6.98695 4 7.15652 4 7.33333V15.3333C4 15.5101 4.07024 15.6797 4.19526 15.8047C4.32029 15.9298 4.48986 16 4.66667 16H12.6667C12.8435 16 13.013 15.9298 13.1381 15.8047C13.2631 15.6797 13.3333 15.5101 13.3333 15.3333V12C13.3333 11.8232 13.2631 11.6536 13.1381 11.5286C13.013 11.4036 12.8435 11.3333 12.6667 11.3333H4M12 4H15.3333C15.7015 4 16 4.29848 16 4.66667V8C16 8.36819 15.7015 8.66667 15.3333 8.66667H12C11.6318 8.66667 11.3333 8.36819 11.3333 8V4.66667C11.3333 4.29848 11.6318 4 12 4Z" stroke="#09090B" stroke-linecap="round" stroke-linejoin="round"/>
</svg>
