<svg width="20" height="20" viewBox="0 0 20 20" fill="none" xmlns="http://www.w3.org/2000/svg">
<g clip-path="url(#clip0_2070_12588)">
<path d="M10.9999 6.66659C11.184 6.66659 11.3333 6.51735 11.3333 6.33325C11.3333 6.14916 11.184 5.99992 10.9999 5.99992C10.8158 5.99992 10.6666 6.14916 10.6666 6.33325C10.6666 6.51735 10.8158 6.66659 10.9999 6.66659Z" stroke="#71717A" stroke-linecap="round" stroke-linejoin="round"/>
<path d="M13.6666 9.33325C13.8507 9.33325 13.9999 9.18401 13.9999 8.99992C13.9999 8.81582 13.8507 8.66659 13.6666 8.66659C13.4825 8.66659 13.3333 8.81582 13.3333 8.99992C13.3333 9.18401 13.4825 9.33325 13.6666 9.33325Z" stroke="#71717A" stroke-linecap="round" stroke-linejoin="round"/>
<path d="M7.66659 7.33325C7.85068 7.33325 7.99992 7.18401 7.99992 6.99992C7.99992 6.81582 7.85068 6.66659 7.66659 6.66659C7.48249 6.66659 7.33325 6.81582 7.33325 6.99992C7.33325 7.18401 7.48249 7.33325 7.66659 7.33325Z" stroke="#71717A" stroke-linecap="round" stroke-linejoin="round"/>
<path d="M6.33325 10.6666C6.51735 10.6666 6.66659 10.5173 6.66659 10.3333C6.66659 10.1492 6.51735 9.99992 6.33325 9.99992C6.14916 9.99992 5.99992 10.1492 5.99992 10.3333C5.99992 10.5173 6.14916 10.6666 6.33325 10.6666Z" stroke="#71717A" stroke-linecap="round" stroke-linejoin="round"/>
<path d="M9.99992 3.33325C6.33325 3.33325 3.33325 6.33325 3.33325 9.99992C3.33325 13.6666 6.33325 16.6666 9.99992 16.6666C10.6173 16.6666 11.0986 16.1693 11.0986 15.5413C11.0986 15.2499 10.9786 14.9846 10.8073 14.7913C10.6139 14.5986 10.5153 14.3566 10.5153 14.0413C10.5127 13.8945 10.5398 13.7488 10.5947 13.6127C10.6497 13.4767 10.7316 13.3531 10.8353 13.2493C10.9391 13.1456 11.0627 13.0637 11.1987 13.0087C11.3348 12.9538 11.4805 12.9267 11.6273 12.9293H12.9579C14.9919 12.9293 16.6613 11.2606 16.6613 9.22659C16.6433 6.00792 13.6406 3.33325 9.99992 3.33325Z" stroke="#71717A" stroke-linecap="round" stroke-linejoin="round"/>
</g>
<defs>
<clipPath id="clip0_2070_12588">
<rect width="16" height="16" fill="white" transform="translate(2 2)"/>
</clipPath>
</defs>
</svg>
