<svg width="25" height="24" viewBox="0 0 25 24" fill="none" xmlns="http://www.w3.org/2000/svg">
<path d="M12.5 14.1163C13.6572 14.1163 14.5953 13.1688 14.5953 11.9999C14.5953 10.8311 13.6572 9.88354 12.5 9.88354C11.3429 9.88354 10.4048 10.8311 10.4048 11.9999C10.4048 13.1688 11.3429 14.1163 12.5 14.1163Z" fill="#09090B"/>
<path d="M12.5 16.7618C18.2858 16.7618 22.9762 14.6299 22.9762 11.9999C22.9762 9.37001 18.2858 7.23804 12.5 7.23804C6.71415 7.23804 2.0238 9.37001 2.0238 11.9999C2.0238 14.6299 6.71415 16.7618 12.5 16.7618Z" stroke="#09090B" stroke-width="1.5"/>
<path d="M8.41732 14.3809C11.3102 19.4422 15.4833 22.4792 17.7381 21.1642C19.9929 19.8493 19.4756 14.6803 16.5827 9.619C13.6898 4.5577 9.51672 1.5207 7.26191 2.83566C5.00711 4.15063 5.5244 9.31961 8.41732 14.3809Z" stroke="#09090B" stroke-width="1.5"/>
<path d="M8.41732 9.61906C5.5244 14.6804 5.00711 19.8493 7.26192 21.1643C9.51673 22.4793 13.6898 19.4423 16.5827 14.381C19.4756 9.31967 19.9929 4.15069 17.7381 2.83572C15.4833 1.52076 11.3102 4.55776 8.41732 9.61906Z" stroke="#09090B" stroke-width="1.5"/>
</svg>
