<svg width="25" height="24" viewBox="0 0 25 24" fill="none" xmlns="http://www.w3.org/2000/svg">
<path fill-rule="evenodd" clip-rule="evenodd" d="M21.5 1C22.6046 1 23.5 1.89232 23.5 2.99689C23.5 8.68455 23.5 17.1774 23.5 21.0041C23.5 22.1086 22.6077 23 21.5031 23C15.8155 23 7.32263 23 3.49595 23C2.39137 23 1.50001 22.108 1.50002 21.0034C1.50007 15.2015 1.50003 6.79323 1.50002 2.99497C1.50001 1.8904 2.39544 1 3.50002 1L21.5 1ZM13.7297 12.7043V10.9H5.9V12.7043H8.69532V20.7382H10.9206V12.7043H13.7297ZM14.6168 20.5261C14.9757 20.709 15.4001 20.8463 15.89 20.9378C16.3801 21.0292 16.8964 21.075 17.4393 21.075C17.9684 21.075 18.471 21.0247 18.9472 20.924C19.4234 20.8234 19.8409 20.6576 20.1997 20.4266C20.5585 20.1956 20.8427 19.8938 21.052 19.521C21.2613 19.1481 21.366 18.6873 21.366 18.1384C21.366 17.7405 21.3062 17.3918 21.1865 17.0922C21.067 16.7925 20.8944 16.5261 20.669 16.2928C20.4436 16.0595 20.1733 15.8503 19.8581 15.665C19.5429 15.4798 19.1876 15.3048 18.792 15.1402C18.5021 15.0212 18.2421 14.9057 18.0121 14.7937C17.782 14.6816 17.5865 14.5672 17.4255 14.4506C17.2645 14.3339 17.1403 14.2105 17.0529 14.0801C16.9655 13.9498 16.9218 13.8022 16.9218 13.6376C16.9218 13.4866 16.9609 13.3505 17.0391 13.2294C17.1173 13.1081 17.2277 13.004 17.3703 12.9171C17.513 12.8302 17.6877 12.7628 17.8948 12.7147C18.1018 12.6668 18.3319 12.6427 18.5849 12.6427C18.7689 12.6427 18.9633 12.6564 19.168 12.6839C19.3728 12.7114 19.5787 12.7537 19.7856 12.8108C19.9927 12.868 20.194 12.94 20.3895 13.027C20.5851 13.1139 20.7656 13.2145 20.9313 13.3288V11.2774C20.5953 11.1493 20.2285 11.0543 19.8305 10.9927C19.4326 10.9309 18.9759 10.9 18.4606 10.9C17.9362 10.9 17.4393 10.956 16.9701 11.0681C16.5008 11.1802 16.0879 11.3551 15.7313 11.593C15.3748 11.8309 15.093 12.1339 14.886 12.502C14.6789 12.8703 14.5754 13.3105 14.5754 13.8228C14.5754 14.4769 14.7652 15.035 15.1448 15.4969C15.5244 15.9589 16.1005 16.35 16.8734 16.6702C17.1771 16.7937 17.46 16.9149 17.7223 17.0339C17.9845 17.1527 18.2111 17.2763 18.402 17.4043C18.5929 17.5324 18.7436 17.6719 18.854 17.8228C18.9645 17.9738 19.0197 18.1453 19.0197 18.3374C19.0197 18.4793 18.9851 18.6107 18.9161 18.7319C18.8471 18.8532 18.7424 18.9583 18.6021 19.0475C18.4618 19.1367 18.287 19.2065 18.0777 19.2568C17.8684 19.3071 17.6233 19.3323 17.3427 19.3323C16.8642 19.3323 16.3904 19.2488 15.9211 19.0819C15.4519 18.9149 15.0171 18.6645 14.6168 18.3306V20.5261Z" fill="#09090B"/>
</svg>
